<svg width="1100" height="300" viewBox="0 0 1100 300" fill="none" xmlns="http://www.w3.org/2000/svg">
<rect width="1100" height="300" fill="white"/>
<path d="M465.719 167.434V169.871C465.719 171.988 465.215 173.664 464.207 174.898C463.418 175.867 462.422 176.352 461.219 176.352C460.641 176.352 460.094 176.234 459.578 176C459.07 175.773 458.637 175.453 458.277 175.039C458.051 174.781 457.801 174.367 457.527 173.797C457.262 173.227 457.07 172.703 456.953 172.227C456.773 171.555 456.684 170.77 456.684 169.871V167.434C456.684 165.309 457.188 163.629 458.195 162.395C458.984 161.426 459.98 160.941 461.184 160.941C461.77 160.941 462.316 161.059 462.824 161.293C463.332 161.52 463.766 161.84 464.125 162.254C464.359 162.52 464.609 162.938 464.875 163.508C465.141 164.078 465.336 164.598 465.461 165.066C465.633 165.738 465.719 166.527 465.719 167.434ZM464.734 167.562C464.734 166.633 464.602 165.77 464.336 164.973C464.078 164.168 463.785 163.527 463.457 163.051C463.262 162.777 463.008 162.543 462.695 162.348C462.25 162.074 461.75 161.938 461.195 161.938C460.094 161.938 459.23 162.5 458.605 163.625C457.98 164.75 457.668 166.062 457.668 167.562V169.73C457.668 170.66 457.797 171.527 458.055 172.332C458.32 173.137 458.621 173.777 458.957 174.254C459.145 174.52 459.395 174.75 459.707 174.945C460.152 175.227 460.656 175.367 461.219 175.367C462.312 175.367 463.172 174.805 463.797 173.68C464.422 172.547 464.734 171.23 464.734 169.73V167.562ZM472.902 162.289V167.105C473.48 166.863 474.035 166.684 474.566 166.566C475.098 166.441 475.602 166.379 476.078 166.379C477.312 166.379 478.344 166.812 479.172 167.68C480.008 168.547 480.426 169.688 480.426 171.102C480.426 172.664 479.957 173.93 479.02 174.898C478.082 175.867 476.91 176.352 475.504 176.352C474.574 176.352 473.68 176.145 472.82 175.73C472.211 175.441 471.656 175.082 471.156 174.652C470.859 174.395 470.711 174.18 470.711 174.008C470.711 173.867 470.758 173.75 470.852 173.656C470.945 173.555 471.055 173.504 471.18 173.504C471.312 173.504 471.453 173.574 471.602 173.715C472.781 174.816 474.066 175.367 475.457 175.367C476.605 175.367 477.555 174.977 478.305 174.195C479.055 173.406 479.43 172.359 479.43 171.055C479.43 169.945 479.105 169.055 478.457 168.383C477.809 167.703 476.984 167.363 475.984 167.363C474.961 167.363 473.938 167.633 472.914 168.172C472.664 168.297 472.488 168.359 472.387 168.359C472.246 168.359 472.133 168.312 472.047 168.219C471.961 168.125 471.918 167.992 471.918 167.82V161.293H478.785C479.02 161.293 479.188 161.34 479.289 161.434C479.391 161.527 479.441 161.648 479.441 161.797C479.441 161.938 479.391 162.055 479.289 162.148C479.188 162.242 479.02 162.289 478.785 162.289H472.902ZM494.066 167.68C493.559 168.578 492.953 169.254 492.25 169.707C491.555 170.16 490.84 170.387 490.105 170.387C489.426 170.387 488.766 170.191 488.125 169.801C487.492 169.41 486.988 168.84 486.613 168.09C486.238 167.332 486.051 166.539 486.051 165.711C486.051 164.508 486.422 163.414 487.164 162.43C487.914 161.438 488.914 160.941 490.164 160.941C491.055 160.941 491.867 161.219 492.602 161.773C493.336 162.328 493.906 163.133 494.312 164.188C494.836 165.539 495.098 167.109 495.098 168.898C495.098 170.289 494.875 171.445 494.43 172.367C494.133 172.992 493.695 173.598 493.117 174.184C492.547 174.77 491.902 175.246 491.184 175.613C490.199 176.105 489.176 176.352 488.113 176.352C487.41 176.352 486.836 176.219 486.391 175.953C486.188 175.828 486.086 175.672 486.086 175.484C486.086 175.352 486.133 175.242 486.227 175.156C486.32 175.062 486.434 175.016 486.566 175.016C486.66 175.016 486.797 175.059 486.977 175.145C487.281 175.293 487.633 175.367 488.031 175.367C489.695 175.367 491.125 174.77 492.32 173.574C493.516 172.371 494.113 170.867 494.113 169.062C494.113 168.734 494.098 168.273 494.066 167.68ZM493.879 166.039C493.465 164.453 492.949 163.375 492.332 162.805C491.723 162.227 491.008 161.938 490.188 161.938C489.352 161.938 488.617 162.289 487.984 162.992C487.352 163.695 487.035 164.598 487.035 165.699C487.035 166.77 487.352 167.656 487.984 168.359C488.617 169.055 489.332 169.402 490.129 169.402C490.59 169.402 491.043 169.277 491.488 169.027C491.941 168.777 492.367 168.402 492.766 167.902C493.023 167.566 493.395 166.945 493.879 166.039ZM500.207 175.016H507.766V174.629C507.766 174.395 507.812 174.227 507.906 174.125C508 174.023 508.121 173.973 508.27 173.973C508.41 173.973 508.527 174.023 508.621 174.125C508.715 174.227 508.762 174.395 508.762 174.629V176H499.246V174.547C501.246 172.75 503.191 170.922 505.082 169.062C505.965 168.195 506.57 167.559 506.898 167.152C507.227 166.746 507.449 166.391 507.566 166.086C507.691 165.773 507.754 165.461 507.754 165.148C507.754 164.305 507.414 163.559 506.734 162.91C506.055 162.262 505.234 161.938 504.273 161.938C503.414 161.938 502.652 162.184 501.988 162.676C501.324 163.168 500.895 163.777 500.699 164.504C500.652 164.691 500.594 164.812 500.523 164.867C500.43 164.945 500.32 164.984 500.195 164.984C500.062 164.984 499.949 164.941 499.855 164.855C499.77 164.762 499.727 164.652 499.727 164.527C499.727 164.152 499.93 163.645 500.336 163.004C500.75 162.363 501.316 161.859 502.035 161.492C502.762 161.125 503.504 160.941 504.262 160.941C505.488 160.941 506.543 161.367 507.426 162.219C508.309 163.07 508.75 164.035 508.75 165.113C508.75 165.566 508.676 165.984 508.527 166.367C508.379 166.742 508.125 167.156 507.766 167.609C507.414 168.055 506.777 168.73 505.855 169.637C503.543 171.918 501.66 173.688 500.207 174.945V175.016ZM520.879 168.371C521.699 168.77 522.316 169.297 522.73 169.953C523.152 170.602 523.363 171.301 523.363 172.051C523.363 173.215 522.926 174.223 522.051 175.074C521.176 175.926 520.113 176.352 518.863 176.352C517.613 176.352 516.551 175.926 515.676 175.074C514.801 174.223 514.363 173.215 514.363 172.051C514.363 171.309 514.57 170.613 514.984 169.965C515.406 169.309 516.031 168.777 516.859 168.371C516.141 167.957 515.617 167.527 515.289 167.082C514.836 166.449 514.609 165.75 514.609 164.984C514.609 163.906 515.023 162.965 515.852 162.16C516.688 161.348 517.691 160.941 518.863 160.941C520.043 160.941 521.047 161.348 521.875 162.16C522.703 162.965 523.117 163.906 523.117 164.984C523.117 165.75 522.891 166.445 522.438 167.07C522.117 167.523 521.598 167.957 520.879 168.371ZM522.109 165.02C522.109 164.176 521.793 163.453 521.16 162.852C520.535 162.242 519.766 161.938 518.852 161.938C517.945 161.938 517.176 162.242 516.543 162.852C515.918 163.461 515.605 164.18 515.605 165.008C515.605 165.773 515.914 166.445 516.531 167.023C517.156 167.594 517.93 167.879 518.852 167.879C519.781 167.879 520.555 167.594 521.172 167.023C521.797 166.445 522.109 165.777 522.109 165.02ZM522.379 172.074C522.379 171.207 522.043 170.453 521.371 169.812C520.699 169.172 519.863 168.852 518.863 168.852C517.863 168.852 517.027 169.172 516.355 169.812C515.684 170.453 515.348 171.203 515.348 172.062C515.348 172.953 515.684 173.727 516.355 174.383C517.035 175.039 517.871 175.367 518.863 175.367C519.855 175.367 520.688 175.039 521.359 174.383C522.039 173.727 522.379 172.957 522.379 172.074ZM538.598 171.16H528.566C528.738 172.434 529.27 173.461 530.16 174.242C531.059 175.016 532.168 175.402 533.488 175.402C534.223 175.402 534.992 175.281 535.797 175.039C536.602 174.797 537.258 174.477 537.766 174.078C537.914 173.961 538.043 173.902 538.152 173.902C538.277 173.902 538.387 173.953 538.48 174.055C538.574 174.148 538.621 174.262 538.621 174.395C538.621 174.527 538.559 174.656 538.434 174.781C538.059 175.172 537.391 175.539 536.43 175.883C535.477 176.219 534.496 176.387 533.488 176.387C531.801 176.387 530.391 175.836 529.258 174.734C528.133 173.625 527.57 172.285 527.57 170.715C527.57 169.285 528.098 168.059 529.152 167.035C530.215 166.012 531.527 165.5 533.09 165.5C534.699 165.5 536.023 166.027 537.062 167.082C538.102 168.129 538.613 169.488 538.598 171.16ZM537.602 170.164C537.406 169.078 536.891 168.195 536.055 167.516C535.227 166.836 534.238 166.496 533.09 166.496C531.941 166.496 530.953 166.832 530.125 167.504C529.297 168.176 528.781 169.062 528.578 170.164H537.602ZM552.203 167.434V169.871C552.203 171.988 551.699 173.664 550.691 174.898C549.902 175.867 548.906 176.352 547.703 176.352C547.125 176.352 546.578 176.234 546.062 176C545.555 175.773 545.121 175.453 544.762 175.039C544.535 174.781 544.285 174.367 544.012 173.797C543.746 173.227 543.555 172.703 543.438 172.227C543.258 171.555 543.168 170.77 543.168 169.871V167.434C543.168 165.309 543.672 163.629 544.68 162.395C545.469 161.426 546.465 160.941 547.668 160.941C548.254 160.941 548.801 161.059 549.309 161.293C549.816 161.52 550.25 161.84 550.609 162.254C550.844 162.52 551.094 162.938 551.359 163.508C551.625 164.078 551.82 164.598 551.945 165.066C552.117 165.738 552.203 166.527 552.203 167.434ZM551.219 167.562C551.219 166.633 551.086 165.77 550.82 164.973C550.562 164.168 550.27 163.527 549.941 163.051C549.746 162.777 549.492 162.543 549.18 162.348C548.734 162.074 548.234 161.938 547.68 161.938C546.578 161.938 545.715 162.5 545.09 163.625C544.465 164.75 544.152 166.062 544.152 167.562V169.73C544.152 170.66 544.281 171.527 544.539 172.332C544.805 173.137 545.105 173.777 545.441 174.254C545.629 174.52 545.879 174.75 546.191 174.945C546.637 175.227 547.141 175.367 547.703 175.367C548.797 175.367 549.656 174.805 550.281 173.68C550.906 172.547 551.219 171.23 551.219 169.73V167.562ZM562.586 161.094V175.016H565.961C566.195 175.016 566.363 175.062 566.465 175.156C566.566 175.242 566.617 175.359 566.617 175.508C566.617 175.648 566.566 175.766 566.465 175.859C566.363 175.953 566.195 176 565.961 176H558.227C557.992 176 557.824 175.953 557.723 175.859C557.621 175.766 557.57 175.648 557.57 175.508C557.57 175.359 557.621 175.242 557.723 175.156C557.824 175.062 557.992 175.016 558.227 175.016H561.602V162.453L558.391 163.461C558.234 163.508 558.121 163.531 558.051 163.531C557.934 163.531 557.824 163.484 557.723 163.391C557.629 163.289 557.582 163.172 557.582 163.039C557.582 162.922 557.621 162.812 557.699 162.711C557.762 162.648 557.891 162.582 558.086 162.512L562.586 161.094ZM578.535 168.371C579.355 168.77 579.973 169.297 580.387 169.953C580.809 170.602 581.02 171.301 581.02 172.051C581.02 173.215 580.582 174.223 579.707 175.074C578.832 175.926 577.77 176.352 576.52 176.352C575.27 176.352 574.207 175.926 573.332 175.074C572.457 174.223 572.02 173.215 572.02 172.051C572.02 171.309 572.227 170.613 572.641 169.965C573.062 169.309 573.688 168.777 574.516 168.371C573.797 167.957 573.273 167.527 572.945 167.082C572.492 166.449 572.266 165.75 572.266 164.984C572.266 163.906 572.68 162.965 573.508 162.16C574.344 161.348 575.348 160.941 576.52 160.941C577.699 160.941 578.703 161.348 579.531 162.16C580.359 162.965 580.773 163.906 580.773 164.984C580.773 165.75 580.547 166.445 580.094 167.07C579.773 167.523 579.254 167.957 578.535 168.371ZM579.766 165.02C579.766 164.176 579.449 163.453 578.816 162.852C578.191 162.242 577.422 161.938 576.508 161.938C575.602 161.938 574.832 162.242 574.199 162.852C573.574 163.461 573.262 164.18 573.262 165.008C573.262 165.773 573.57 166.445 574.188 167.023C574.812 167.594 575.586 167.879 576.508 167.879C577.438 167.879 578.211 167.594 578.828 167.023C579.453 166.445 579.766 165.777 579.766 165.02ZM580.035 172.074C580.035 171.207 579.699 170.453 579.027 169.812C578.355 169.172 577.52 168.852 576.52 168.852C575.52 168.852 574.684 169.172 574.012 169.812C573.34 170.453 573.004 171.203 573.004 172.062C573.004 172.953 573.34 173.727 574.012 174.383C574.691 175.039 575.527 175.367 576.52 175.367C577.512 175.367 578.344 175.039 579.016 174.383C579.695 173.727 580.035 172.957 580.035 172.074ZM587.992 169.777C588.602 168.879 589.227 168.215 589.867 167.785C590.516 167.355 591.234 167.141 592.023 167.141C593.07 167.141 594 167.578 594.812 168.453C595.625 169.32 596.031 170.395 596.031 171.676C596.031 172.848 595.66 173.922 594.918 174.898C594.176 175.867 593.152 176.352 591.848 176.352C590.996 176.352 590.199 176.09 589.457 175.566C588.723 175.043 588.145 174.238 587.723 173.152C587.199 171.801 586.938 170.305 586.938 168.664C586.938 167.43 587.184 166.281 587.676 165.219C588.051 164.398 588.551 163.68 589.176 163.062C589.801 162.438 590.527 161.93 591.355 161.539C592.191 161.141 593.094 160.941 594.062 160.941C594.719 160.941 595.266 161.074 595.703 161.34C595.891 161.457 595.984 161.613 595.984 161.809C595.984 161.949 595.941 162.066 595.855 162.16C595.77 162.246 595.66 162.289 595.527 162.289C595.426 162.289 595.305 162.25 595.164 162.172C594.844 162.016 594.445 161.938 593.969 161.938C592.445 161.938 591.055 162.594 589.797 163.906C588.547 165.211 587.922 166.766 587.922 168.57C587.922 168.828 587.945 169.23 587.992 169.777ZM588.215 171.406C588.512 172.828 588.977 173.844 589.609 174.453C590.25 175.062 591.004 175.367 591.871 175.367C592.746 175.367 593.492 175.027 594.109 174.348C594.734 173.66 595.047 172.77 595.047 171.676C595.047 170.652 594.734 169.805 594.109 169.133C593.484 168.461 592.777 168.125 591.988 168.125C591.23 168.125 590.5 168.449 589.797 169.098C589.328 169.527 588.801 170.297 588.215 171.406ZM608.172 176V174.582C606.742 175.785 605.215 176.387 603.59 176.387C602.41 176.387 601.488 176.09 600.824 175.496C600.16 174.895 599.828 174.16 599.828 173.293C599.828 172.34 600.266 171.508 601.141 170.797C602.016 170.086 603.293 169.73 604.973 169.73C605.426 169.73 605.918 169.762 606.449 169.824C606.98 169.879 607.555 169.969 608.172 170.094V168.5C608.172 167.961 607.922 167.492 607.422 167.094C606.922 166.695 606.172 166.496 605.172 166.496C604.406 166.496 603.332 166.719 601.949 167.164C601.699 167.242 601.539 167.281 601.469 167.281C601.344 167.281 601.234 167.234 601.141 167.141C601.055 167.047 601.012 166.93 601.012 166.789C601.012 166.656 601.051 166.551 601.129 166.473C601.238 166.355 601.68 166.195 602.453 165.992C603.672 165.664 604.594 165.5 605.219 165.5C606.461 165.5 607.43 165.809 608.125 166.426C608.82 167.035 609.168 167.727 609.168 168.5V175.016H610.48C610.723 175.016 610.895 175.062 610.996 175.156C611.098 175.242 611.148 175.359 611.148 175.508C611.148 175.648 611.098 175.766 610.996 175.859C610.895 175.953 610.723 176 610.48 176H608.172ZM608.172 171.102C607.711 170.969 607.223 170.871 606.707 170.809C606.191 170.746 605.648 170.715 605.078 170.715C603.648 170.715 602.531 171.023 601.727 171.641C601.117 172.102 600.812 172.652 600.812 173.293C600.812 173.887 601.043 174.387 601.504 174.793C601.973 175.199 602.652 175.402 603.543 175.402C604.395 175.402 605.184 175.234 605.91 174.898C606.645 174.555 607.398 174.012 608.172 173.27V171.102ZM624.273 167.434V169.871C624.273 171.988 623.77 173.664 622.762 174.898C621.973 175.867 620.977 176.352 619.773 176.352C619.195 176.352 618.648 176.234 618.133 176C617.625 175.773 617.191 175.453 616.832 175.039C616.605 174.781 616.355 174.367 616.082 173.797C615.816 173.227 615.625 172.703 615.508 172.227C615.328 171.555 615.238 170.77 615.238 169.871V167.434C615.238 165.309 615.742 163.629 616.75 162.395C617.539 161.426 618.535 160.941 619.738 160.941C620.324 160.941 620.871 161.059 621.379 161.293C621.887 161.52 622.32 161.84 622.68 162.254C622.914 162.52 623.164 162.938 623.43 163.508C623.695 164.078 623.891 164.598 624.016 165.066C624.188 165.738 624.273 166.527 624.273 167.434ZM623.289 167.562C623.289 166.633 623.156 165.77 622.891 164.973C622.633 164.168 622.34 163.527 622.012 163.051C621.816 162.777 621.562 162.543 621.25 162.348C620.805 162.074 620.305 161.938 619.75 161.938C618.648 161.938 617.785 162.5 617.16 163.625C616.535 164.75 616.223 166.062 616.223 167.562V169.73C616.223 170.66 616.352 171.527 616.609 172.332C616.875 173.137 617.176 173.777 617.512 174.254C617.699 174.52 617.949 174.75 618.262 174.945C618.707 175.227 619.211 175.367 619.773 175.367C620.867 175.367 621.727 174.805 622.352 173.68C622.977 172.547 623.289 171.23 623.289 169.73V167.562Z" fill="black"/>
<path d="M454 185V204H541V185" stroke="black" stroke-width="5"/>
<path d="M446.258 224.672C447.352 224.672 448.215 224.453 448.848 224.016C449.488 223.578 449.809 222.789 449.809 221.648C449.809 220.422 449.363 219.586 448.473 219.141C447.996 218.906 447.359 218.789 446.562 218.789H440.867V224.672H446.258ZM438.535 216.785H446.504C447.816 216.785 448.898 216.977 449.75 217.359C451.367 218.094 452.176 219.449 452.176 221.426C452.176 222.457 451.961 223.301 451.531 223.957C451.109 224.613 450.516 225.141 449.75 225.539C450.422 225.812 450.926 226.172 451.262 226.617C451.605 227.062 451.797 227.785 451.836 228.785L451.918 231.094C451.941 231.75 451.996 232.238 452.082 232.559C452.223 233.105 452.473 233.457 452.832 233.613V234H449.973C449.895 233.852 449.832 233.66 449.785 233.426C449.738 233.191 449.699 232.738 449.668 232.066L449.527 229.195C449.473 228.07 449.055 227.316 448.273 226.934C447.828 226.723 447.129 226.617 446.176 226.617H440.867V234H438.535V216.785ZM460.543 221.168C461.434 221.168 462.297 221.379 463.133 221.801C463.969 222.215 464.605 222.754 465.043 223.418C465.465 224.051 465.746 224.789 465.887 225.633C466.012 226.211 466.074 227.133 466.074 228.398H456.875C456.914 229.672 457.215 230.695 457.777 231.469C458.34 232.234 459.211 232.617 460.391 232.617C461.492 232.617 462.371 232.254 463.027 231.527C463.402 231.105 463.668 230.617 463.824 230.062H465.898C465.844 230.523 465.66 231.039 465.348 231.609C465.043 232.172 464.699 232.633 464.316 232.992C463.676 233.617 462.883 234.039 461.938 234.258C461.43 234.383 460.855 234.445 460.215 234.445C458.652 234.445 457.328 233.879 456.242 232.746C455.156 231.605 454.613 230.012 454.613 227.965C454.613 225.949 455.16 224.312 456.254 223.055C457.348 221.797 458.777 221.168 460.543 221.168ZM463.906 226.723C463.82 225.809 463.621 225.078 463.309 224.531C462.73 223.516 461.766 223.008 460.414 223.008C459.445 223.008 458.633 223.359 457.977 224.062C457.32 224.758 456.973 225.645 456.934 226.723H463.906ZM473.516 221.086C474.93 221.086 476.078 221.43 476.961 222.117C477.852 222.805 478.387 223.988 478.566 225.668H476.516C476.391 224.895 476.105 224.254 475.66 223.746C475.215 223.23 474.5 222.973 473.516 222.973C472.172 222.973 471.211 223.629 470.633 224.941C470.258 225.793 470.07 226.844 470.07 228.094C470.07 229.352 470.336 230.41 470.867 231.27C471.398 232.129 472.234 232.559 473.375 232.559C474.25 232.559 474.941 232.293 475.449 231.762C475.965 231.223 476.32 230.488 476.516 229.559H478.566C478.332 231.223 477.746 232.441 476.809 233.215C475.871 233.98 474.672 234.363 473.211 234.363C471.57 234.363 470.262 233.766 469.285 232.57C468.309 231.367 467.82 229.867 467.82 228.07C467.82 225.867 468.355 224.152 469.426 222.926C470.496 221.699 471.859 221.086 473.516 221.086ZM480.676 221.508H482.82V234H480.676V221.508ZM480.676 216.785H482.82V219.176H480.676V216.785ZM491.316 232.582C492.301 232.582 493.117 232.172 493.766 231.352C494.422 230.523 494.75 229.289 494.75 227.648C494.75 226.648 494.605 225.789 494.316 225.07C493.77 223.688 492.77 222.996 491.316 222.996C489.855 222.996 488.855 223.727 488.316 225.188C488.027 225.969 487.883 226.961 487.883 228.164C487.883 229.133 488.027 229.957 488.316 230.637C488.863 231.934 489.863 232.582 491.316 232.582ZM485.855 221.508H487.906V223.172C488.328 222.602 488.789 222.16 489.289 221.848C490 221.379 490.836 221.145 491.797 221.145C493.219 221.145 494.426 221.691 495.418 222.785C496.41 223.871 496.906 225.426 496.906 227.449C496.906 230.184 496.191 232.137 494.762 233.309C493.855 234.051 492.801 234.422 491.598 234.422C490.652 234.422 489.859 234.215 489.219 233.801C488.844 233.566 488.426 233.164 487.965 232.594V239.004H485.855V221.508ZM499.379 221.508H501.523V234H499.379V221.508ZM499.379 216.785H501.523V219.176H499.379V216.785ZM509.949 221.168C510.84 221.168 511.703 221.379 512.539 221.801C513.375 222.215 514.012 222.754 514.449 223.418C514.871 224.051 515.152 224.789 515.293 225.633C515.418 226.211 515.48 227.133 515.48 228.398H506.281C506.32 229.672 506.621 230.695 507.184 231.469C507.746 232.234 508.617 232.617 509.797 232.617C510.898 232.617 511.777 232.254 512.434 231.527C512.809 231.105 513.074 230.617 513.23 230.062H515.305C515.25 230.523 515.066 231.039 514.754 231.609C514.449 232.172 514.105 232.633 513.723 232.992C513.082 233.617 512.289 234.039 511.344 234.258C510.836 234.383 510.262 234.445 509.621 234.445C508.059 234.445 506.734 233.879 505.648 232.746C504.562 231.605 504.02 230.012 504.02 227.965C504.02 225.949 504.566 224.312 505.66 223.055C506.754 221.797 508.184 221.168 509.949 221.168ZM513.312 226.723C513.227 225.809 513.027 225.078 512.715 224.531C512.137 223.516 511.172 223.008 509.82 223.008C508.852 223.008 508.039 223.359 507.383 224.062C506.727 224.758 506.379 225.645 506.34 226.723H513.312ZM518.082 221.449H520.086V223.23C520.68 222.496 521.309 221.969 521.973 221.648C522.637 221.328 523.375 221.168 524.188 221.168C525.969 221.168 527.172 221.789 527.797 223.031C528.141 223.711 528.312 224.684 528.312 225.949V234H526.168V226.09C526.168 225.324 526.055 224.707 525.828 224.238C525.453 223.457 524.773 223.066 523.789 223.066C523.289 223.066 522.879 223.117 522.559 223.219C521.98 223.391 521.473 223.734 521.035 224.25C520.684 224.664 520.453 225.094 520.344 225.539C520.242 225.977 520.191 226.605 520.191 227.426V234H518.082V221.449ZM531.863 217.945H533.996V221.449H536V223.172H533.996V231.363C533.996 231.801 534.145 232.094 534.441 232.242C534.605 232.328 534.879 232.371 535.262 232.371C535.363 232.371 535.473 232.371 535.59 232.371C535.707 232.363 535.844 232.352 536 232.336V234C535.758 234.07 535.504 234.121 535.238 234.152C534.98 234.184 534.699 234.199 534.395 234.199C533.41 234.199 532.742 233.949 532.391 233.449C532.039 232.941 531.863 232.285 531.863 231.48V223.172H530.164V221.449H531.863V217.945ZM437.445 250.945L434.832 243.34L432.055 250.945H437.445ZM433.613 240.785H436.25L442.496 258H439.941L438.195 252.844H431.387L429.523 258H427.133L433.613 240.785ZM445.672 251.871C445.672 253.215 445.957 254.34 446.527 255.246C447.098 256.152 448.012 256.605 449.27 256.605C450.246 256.605 451.047 256.188 451.672 255.352C452.305 254.508 452.621 253.301 452.621 251.73C452.621 250.145 452.297 248.973 451.648 248.215C451 247.449 450.199 247.066 449.246 247.066C448.184 247.066 447.32 247.473 446.656 248.285C446 249.098 445.672 250.293 445.672 251.871ZM448.848 245.227C449.809 245.227 450.613 245.43 451.262 245.836C451.637 246.07 452.062 246.48 452.539 247.066V240.727H454.566V258H452.668V256.254C452.176 257.027 451.594 257.586 450.922 257.93C450.25 258.273 449.48 258.445 448.613 258.445C447.215 258.445 446.004 257.859 444.98 256.688C443.957 255.508 443.445 253.941 443.445 251.988C443.445 250.16 443.91 248.578 444.84 247.242C445.777 245.898 447.113 245.227 448.848 245.227ZM459.031 251.871C459.031 253.215 459.316 254.34 459.887 255.246C460.457 256.152 461.371 256.605 462.629 256.605C463.605 256.605 464.406 256.188 465.031 255.352C465.664 254.508 465.98 253.301 465.98 251.73C465.98 250.145 465.656 248.973 465.008 248.215C464.359 247.449 463.559 247.066 462.605 247.066C461.543 247.066 460.68 247.473 460.016 248.285C459.359 249.098 459.031 250.293 459.031 251.871ZM462.207 245.227C463.168 245.227 463.973 245.43 464.621 245.836C464.996 246.07 465.422 246.48 465.898 247.066V240.727H467.926V258H466.027V256.254C465.535 257.027 464.953 257.586 464.281 257.93C463.609 258.273 462.84 258.445 461.973 258.445C460.574 258.445 459.363 257.859 458.34 256.688C457.316 255.508 456.805 253.941 456.805 251.988C456.805 250.16 457.27 248.578 458.199 247.242C459.137 245.898 460.473 245.227 462.207 245.227ZM471.113 245.449H473.117V247.617C473.281 247.195 473.684 246.684 474.324 246.082C474.965 245.473 475.703 245.168 476.539 245.168C476.578 245.168 476.645 245.172 476.738 245.18C476.832 245.188 476.992 245.203 477.219 245.227V247.453C477.094 247.43 476.977 247.414 476.867 247.406C476.766 247.398 476.652 247.395 476.527 247.395C475.465 247.395 474.648 247.738 474.078 248.426C473.508 249.105 473.223 249.891 473.223 250.781V258H471.113V245.449ZM484.273 245.168C485.164 245.168 486.027 245.379 486.863 245.801C487.699 246.215 488.336 246.754 488.773 247.418C489.195 248.051 489.477 248.789 489.617 249.633C489.742 250.211 489.805 251.133 489.805 252.398H480.605C480.645 253.672 480.945 254.695 481.508 255.469C482.07 256.234 482.941 256.617 484.121 256.617C485.223 256.617 486.102 256.254 486.758 255.527C487.133 255.105 487.398 254.617 487.555 254.062H489.629C489.574 254.523 489.391 255.039 489.078 255.609C488.773 256.172 488.43 256.633 488.047 256.992C487.406 257.617 486.613 258.039 485.668 258.258C485.16 258.383 484.586 258.445 483.945 258.445C482.383 258.445 481.059 257.879 479.973 256.746C478.887 255.605 478.344 254.012 478.344 251.965C478.344 249.949 478.891 248.312 479.984 247.055C481.078 245.797 482.508 245.168 484.273 245.168ZM487.637 250.723C487.551 249.809 487.352 249.078 487.039 248.531C486.461 247.516 485.496 247.008 484.145 247.008C483.176 247.008 482.363 247.359 481.707 248.062C481.051 248.758 480.703 249.645 480.664 250.723H487.637ZM493.66 254.062C493.723 254.766 493.898 255.305 494.188 255.68C494.719 256.359 495.641 256.699 496.953 256.699C497.734 256.699 498.422 256.531 499.016 256.195C499.609 255.852 499.906 255.324 499.906 254.613C499.906 254.074 499.668 253.664 499.191 253.383C498.887 253.211 498.285 253.012 497.387 252.785L495.711 252.363C494.641 252.098 493.852 251.801 493.344 251.473C492.438 250.902 491.984 250.113 491.984 249.105C491.984 247.918 492.41 246.957 493.262 246.223C494.121 245.488 495.273 245.121 496.719 245.121C498.609 245.121 499.973 245.676 500.809 246.785C501.332 247.488 501.586 248.246 501.57 249.059H499.578C499.539 248.582 499.371 248.148 499.074 247.758C498.59 247.203 497.75 246.926 496.555 246.926C495.758 246.926 495.152 247.078 494.738 247.383C494.332 247.688 494.129 248.09 494.129 248.59C494.129 249.137 494.398 249.574 494.938 249.902C495.25 250.098 495.711 250.27 496.32 250.418L497.715 250.758C499.23 251.125 500.246 251.48 500.762 251.824C501.582 252.363 501.992 253.211 501.992 254.367C501.992 255.484 501.566 256.449 500.715 257.262C499.871 258.074 498.582 258.48 496.848 258.48C494.98 258.48 493.656 258.059 492.875 257.215C492.102 256.363 491.688 255.312 491.633 254.062H493.66ZM505.66 254.062C505.723 254.766 505.898 255.305 506.188 255.68C506.719 256.359 507.641 256.699 508.953 256.699C509.734 256.699 510.422 256.531 511.016 256.195C511.609 255.852 511.906 255.324 511.906 254.613C511.906 254.074 511.668 253.664 511.191 253.383C510.887 253.211 510.285 253.012 509.387 252.785L507.711 252.363C506.641 252.098 505.852 251.801 505.344 251.473C504.438 250.902 503.984 250.113 503.984 249.105C503.984 247.918 504.41 246.957 505.262 246.223C506.121 245.488 507.273 245.121 508.719 245.121C510.609 245.121 511.973 245.676 512.809 246.785C513.332 247.488 513.586 248.246 513.57 249.059H511.578C511.539 248.582 511.371 248.148 511.074 247.758C510.59 247.203 509.75 246.926 508.555 246.926C507.758 246.926 507.152 247.078 506.738 247.383C506.332 247.688 506.129 248.09 506.129 248.59C506.129 249.137 506.398 249.574 506.938 249.902C507.25 250.098 507.711 250.27 508.32 250.418L509.715 250.758C511.23 251.125 512.246 251.48 512.762 251.824C513.582 252.363 513.992 253.211 513.992 254.367C513.992 255.484 513.566 256.449 512.715 257.262C511.871 258.074 510.582 258.48 508.848 258.48C506.98 258.48 505.656 258.059 504.875 257.215C504.102 256.363 503.688 255.312 503.633 254.062H505.66ZM523.895 240.785H526.25V258H523.895V240.785ZM536.656 256.008C537.445 256.008 538.094 255.926 538.602 255.762C539.508 255.457 540.25 254.871 540.828 254.004C541.289 253.309 541.621 252.418 541.824 251.332C541.941 250.684 542 250.082 542 249.527C542 247.395 541.574 245.738 540.723 244.559C539.879 243.379 538.516 242.789 536.633 242.789H532.496V256.008H536.656ZM530.152 240.785H537.125C539.492 240.785 541.328 241.625 542.633 243.305C543.797 244.82 544.379 246.762 544.379 249.129C544.379 250.957 544.035 252.609 543.348 254.086C542.137 256.695 540.055 258 537.102 258H530.152V240.785Z" fill="black"/>
<path d="M560.285 226.945L557.672 219.34L554.895 226.945H560.285ZM556.453 216.785H559.09L565.336 234H562.781L561.035 228.844H554.227L552.363 234H549.973L556.453 216.785ZM567.176 221.449H569.262V223.23C569.762 222.613 570.215 222.164 570.621 221.883C571.316 221.406 572.105 221.168 572.988 221.168C573.988 221.168 574.793 221.414 575.402 221.906C575.746 222.188 576.059 222.602 576.34 223.148C576.809 222.477 577.359 221.98 577.992 221.66C578.625 221.332 579.336 221.168 580.125 221.168C581.812 221.168 582.961 221.777 583.57 222.996C583.898 223.652 584.062 224.535 584.062 225.645V234H581.871V225.281C581.871 224.445 581.66 223.871 581.238 223.559C580.824 223.246 580.316 223.09 579.715 223.09C578.887 223.09 578.172 223.367 577.57 223.922C576.977 224.477 576.68 225.402 576.68 226.699V234H574.535V225.809C574.535 224.957 574.434 224.336 574.23 223.945C573.91 223.359 573.312 223.066 572.438 223.066C571.641 223.066 570.914 223.375 570.258 223.992C569.609 224.609 569.285 225.727 569.285 227.344V234H567.176V221.449ZM592.148 232.641C593.547 232.641 594.504 232.113 595.02 231.059C595.543 229.996 595.805 228.816 595.805 227.52C595.805 226.348 595.617 225.395 595.242 224.66C594.648 223.504 593.625 222.926 592.172 222.926C590.883 222.926 589.945 223.418 589.359 224.402C588.773 225.387 588.48 226.574 588.48 227.965C588.48 229.301 588.773 230.414 589.359 231.305C589.945 232.195 590.875 232.641 592.148 232.641ZM592.23 221.086C593.848 221.086 595.215 221.625 596.332 222.703C597.449 223.781 598.008 225.367 598.008 227.461C598.008 229.484 597.516 231.156 596.531 232.477C595.547 233.797 594.02 234.457 591.949 234.457C590.223 234.457 588.852 233.875 587.836 232.711C586.82 231.539 586.312 229.969 586.312 228C586.312 225.891 586.848 224.211 587.918 222.961C588.988 221.711 590.426 221.086 592.23 221.086ZM602.637 221.449V229.781C602.637 230.422 602.738 230.945 602.941 231.352C603.316 232.102 604.016 232.477 605.039 232.477C606.508 232.477 607.508 231.82 608.039 230.508C608.328 229.805 608.473 228.84 608.473 227.613V221.449H610.582V234H608.59L608.613 232.148C608.34 232.625 608 233.027 607.594 233.355C606.789 234.012 605.812 234.34 604.664 234.34C602.875 234.34 601.656 233.742 601.008 232.547C600.656 231.906 600.48 231.051 600.48 229.98V221.449H602.637ZM613.887 221.449H615.891V223.23C616.484 222.496 617.113 221.969 617.777 221.648C618.441 221.328 619.18 221.168 619.992 221.168C621.773 221.168 622.977 221.789 623.602 223.031C623.945 223.711 624.117 224.684 624.117 225.949V234H621.973V226.09C621.973 225.324 621.859 224.707 621.633 224.238C621.258 223.457 620.578 223.066 619.594 223.066C619.094 223.066 618.684 223.117 618.363 223.219C617.785 223.391 617.277 223.734 616.84 224.25C616.488 224.664 616.258 225.094 616.148 225.539C616.047 225.977 615.996 226.605 615.996 227.426V234H613.887V221.449ZM627.668 217.945H629.801V221.449H631.805V223.172H629.801V231.363C629.801 231.801 629.949 232.094 630.246 232.242C630.41 232.328 630.684 232.371 631.066 232.371C631.168 232.371 631.277 232.371 631.395 232.371C631.512 232.363 631.648 232.352 631.805 232.336V234C631.562 234.07 631.309 234.121 631.043 234.152C630.785 234.184 630.504 234.199 630.199 234.199C629.215 234.199 628.547 233.949 628.195 233.449C627.844 232.941 627.668 232.285 627.668 231.48V223.172H625.969V221.449H627.668V217.945Z" fill="black"/>
<path d="M372.854 43.4746C376.123 43.4746 378.66 44.3359 380.465 46.0586C382.27 47.7812 383.271 49.7383 383.471 51.9297H380.061C379.674 50.2656 378.9 48.9473 377.74 47.9746C376.592 47.002 374.975 46.5156 372.889 46.5156C370.346 46.5156 368.289 47.4121 366.719 49.2051C365.16 50.9863 364.381 53.7227 364.381 57.4141C364.381 60.4375 365.084 62.8926 366.49 64.7793C367.908 66.6543 370.018 67.5918 372.818 67.5918C375.396 67.5918 377.359 66.6016 378.707 64.6211C379.422 63.5781 379.955 62.207 380.307 60.5078H383.717C383.412 63.2266 382.404 65.5059 380.693 67.3457C378.643 69.5605 375.877 70.668 372.396 70.668C369.396 70.668 366.877 69.7598 364.838 67.9434C362.154 65.541 360.812 61.832 360.812 56.8164C360.812 53.0078 361.82 49.8848 363.836 47.4473C366.016 44.7988 369.021 43.4746 372.854 43.4746ZM395.037 67.9609C397.135 67.9609 398.57 67.1699 399.344 65.5879C400.129 63.9941 400.521 62.2246 400.521 60.2793C400.521 58.5215 400.24 57.0918 399.678 55.9902C398.787 54.2559 397.252 53.3887 395.072 53.3887C393.139 53.3887 391.732 54.127 390.854 55.6035C389.975 57.0801 389.535 58.8613 389.535 60.9473C389.535 62.9512 389.975 64.6211 390.854 65.957C391.732 67.293 393.127 67.9609 395.037 67.9609ZM395.16 50.6289C397.586 50.6289 399.637 51.4375 401.312 53.0547C402.988 54.6719 403.826 57.0508 403.826 60.1914C403.826 63.2266 403.088 65.7344 401.611 67.7148C400.135 69.6953 397.844 70.6855 394.738 70.6855C392.148 70.6855 390.092 69.8125 388.568 68.0664C387.045 66.3086 386.283 63.9531 386.283 61C386.283 57.8359 387.086 55.3164 388.691 53.4414C390.297 51.5664 392.453 50.6289 395.16 50.6289ZM407.605 51.1738H410.734V53.8457C411.484 52.9199 412.164 52.2461 412.773 51.8242C413.816 51.1094 415 50.752 416.324 50.752C417.824 50.752 419.031 51.1211 419.945 51.8594C420.461 52.2812 420.93 52.9023 421.352 53.7227C422.055 52.7148 422.881 51.9707 423.83 51.4902C424.779 50.998 425.846 50.752 427.029 50.752C429.561 50.752 431.283 51.666 432.197 53.4941C432.689 54.4785 432.936 55.8027 432.936 57.4668V70H429.648V56.9219C429.648 55.668 429.332 54.8066 428.699 54.3379C428.078 53.8691 427.316 53.6348 426.414 53.6348C425.172 53.6348 424.1 54.0508 423.197 54.8828C422.307 55.7148 421.861 57.1035 421.861 59.0488V70H418.645V57.7129C418.645 56.4355 418.492 55.5039 418.188 54.918C417.707 54.0391 416.811 53.5996 415.498 53.5996C414.303 53.5996 413.213 54.0625 412.229 54.9883C411.256 55.9141 410.77 57.5898 410.77 60.0156V70H407.605V51.1738ZM437.348 44.0898H440.424V53.459C441.115 52.5566 441.941 51.8711 442.902 51.4023C443.863 50.9219 444.906 50.6816 446.031 50.6816C448.375 50.6816 450.273 51.4902 451.727 53.1074C453.191 54.7129 453.924 57.0859 453.924 60.2266C453.924 63.2031 453.203 65.6758 451.762 67.6445C450.32 69.6133 448.322 70.5977 445.768 70.5977C444.338 70.5977 443.131 70.252 442.146 69.5605C441.561 69.1504 440.934 68.4941 440.266 67.5918V70H437.348V44.0898ZM445.574 67.8027C447.285 67.8027 448.562 67.123 449.406 65.7637C450.262 64.4043 450.689 62.6113 450.689 60.3848C450.689 58.4043 450.262 56.7637 449.406 55.4629C448.562 54.1621 447.314 53.5117 445.662 53.5117C444.221 53.5117 442.955 54.0449 441.865 55.1113C440.787 56.1777 440.248 57.9355 440.248 60.3848C440.248 62.1543 440.471 63.5898 440.916 64.6914C441.748 66.7656 443.301 67.8027 445.574 67.8027ZM457.633 51.2617H460.85V70H457.633V51.2617ZM457.633 44.1777H460.85V47.7637H457.633V44.1777ZM465.648 51.1738H468.654V53.8457C469.545 52.7441 470.488 51.9531 471.484 51.4727C472.48 50.9922 473.588 50.752 474.807 50.752C477.479 50.752 479.283 51.6836 480.221 53.5469C480.736 54.5664 480.994 56.0254 480.994 57.9238V70H477.777V58.1348C477.777 56.9863 477.607 56.0605 477.268 55.3574C476.705 54.1855 475.686 53.5996 474.209 53.5996C473.459 53.5996 472.844 53.6758 472.363 53.8281C471.496 54.0859 470.734 54.6016 470.078 55.375C469.551 55.9961 469.205 56.6406 469.041 57.3086C468.889 57.9648 468.812 58.9082 468.812 60.1387V70H465.648V51.1738ZM493.527 50.752C494.863 50.752 496.158 51.0684 497.412 51.7012C498.666 52.3223 499.621 53.1309 500.277 54.127C500.91 55.0762 501.332 56.1836 501.543 57.4492C501.73 58.3164 501.824 59.6992 501.824 61.5977H488.025C488.084 63.5078 488.535 65.043 489.379 66.2031C490.223 67.3516 491.529 67.9258 493.299 67.9258C494.951 67.9258 496.27 67.3809 497.254 66.291C497.816 65.6582 498.215 64.9258 498.449 64.0938H501.561C501.479 64.7852 501.203 65.5586 500.734 66.4141C500.277 67.2578 499.762 67.9492 499.188 68.4883C498.227 69.4258 497.037 70.0586 495.619 70.3867C494.857 70.5742 493.996 70.668 493.035 70.668C490.691 70.668 488.705 69.8184 487.076 68.1191C485.447 66.4082 484.633 64.0176 484.633 60.9473C484.633 57.9238 485.453 55.4688 487.094 53.582C488.734 51.6953 490.879 50.752 493.527 50.752ZM498.572 59.084C498.443 57.7129 498.145 56.6172 497.676 55.7969C496.809 54.2734 495.361 53.5117 493.334 53.5117C491.881 53.5117 490.662 54.0391 489.678 55.0938C488.693 56.1367 488.172 57.4668 488.113 59.084H498.572ZM507.73 60.8066C507.73 62.8223 508.158 64.5098 509.014 65.8691C509.869 67.2285 511.24 67.9082 513.127 67.9082C514.592 67.9082 515.793 67.2812 516.73 66.0273C517.68 64.7617 518.154 62.9512 518.154 60.5957C518.154 58.2168 517.668 56.459 516.695 55.3223C515.723 54.1738 514.521 53.5996 513.092 53.5996C511.498 53.5996 510.203 54.209 509.207 55.4277C508.223 56.6465 507.73 58.4395 507.73 60.8066ZM512.494 50.8398C513.936 50.8398 515.143 51.1445 516.115 51.7539C516.678 52.1055 517.316 52.7207 518.031 53.5996V44.0898H521.072V70H518.225V67.3809C517.486 68.541 516.613 69.3789 515.605 69.8945C514.598 70.4102 513.443 70.668 512.143 70.668C510.045 70.668 508.229 69.7891 506.693 68.0312C505.158 66.2617 504.391 63.9121 504.391 60.9824C504.391 58.2402 505.088 55.8672 506.482 53.8633C507.889 51.8477 509.893 50.8398 512.494 50.8398ZM543.045 50.6289C545.166 50.6289 546.889 51.1445 548.213 52.1758C549.549 53.207 550.352 54.9824 550.621 57.502H547.545C547.357 56.3418 546.93 55.3809 546.262 54.6191C545.594 53.8457 544.521 53.459 543.045 53.459C541.029 53.459 539.588 54.4434 538.721 56.4121C538.158 57.6895 537.877 59.2656 537.877 61.1406C537.877 63.0273 538.275 64.6152 539.072 65.9043C539.869 67.1934 541.123 67.8379 542.834 67.8379C544.146 67.8379 545.184 67.4395 545.945 66.6426C546.719 65.834 547.252 64.7324 547.545 63.3379H550.621C550.27 65.834 549.391 67.6621 547.984 68.8223C546.578 69.9707 544.779 70.5449 542.588 70.5449C540.127 70.5449 538.164 69.6484 536.699 67.8555C535.234 66.0508 534.502 63.8008 534.502 61.1055C534.502 57.8008 535.305 55.2285 536.91 53.3887C538.516 51.5488 540.561 50.6289 543.045 50.6289ZM556.211 64.9902C556.211 65.9043 556.545 66.625 557.213 67.1523C557.881 67.6797 558.672 67.9434 559.586 67.9434C560.699 67.9434 561.777 67.6855 562.82 67.1699C564.578 66.3145 565.457 64.9141 565.457 62.9688V60.4199C565.07 60.666 564.572 60.8711 563.963 61.0352C563.354 61.1992 562.756 61.3164 562.17 61.3867L560.254 61.6328C559.105 61.7852 558.244 62.0254 557.67 62.3535C556.697 62.9043 556.211 63.7832 556.211 64.9902ZM563.875 58.5918C564.602 58.498 565.088 58.1934 565.334 57.6777C565.475 57.3965 565.545 56.9922 565.545 56.4648C565.545 55.3867 565.158 54.6074 564.385 54.127C563.623 53.6348 562.527 53.3887 561.098 53.3887C559.445 53.3887 558.273 53.834 557.582 54.7246C557.195 55.2168 556.943 55.9492 556.826 56.9219H553.873C553.932 54.6016 554.682 52.9902 556.123 52.0879C557.576 51.1738 559.258 50.7168 561.168 50.7168C563.383 50.7168 565.182 51.1387 566.564 51.9824C567.936 52.8262 568.621 54.1387 568.621 55.9199V66.7656C568.621 67.0938 568.686 67.3574 568.814 67.5566C568.955 67.7559 569.242 67.8555 569.676 67.8555C569.816 67.8555 569.975 67.8496 570.15 67.8379C570.326 67.8145 570.514 67.7852 570.713 67.75V70.0879C570.221 70.2285 569.846 70.3164 569.588 70.3516C569.33 70.3867 568.979 70.4043 568.533 70.4043C567.443 70.4043 566.652 70.0176 566.16 69.2441C565.902 68.834 565.721 68.2539 565.615 67.5039C564.971 68.3477 564.045 69.0801 562.838 69.7012C561.631 70.3223 560.301 70.6328 558.848 70.6328C557.102 70.6328 555.672 70.1055 554.559 69.0508C553.457 67.9844 552.906 66.6543 552.906 65.0605C552.906 63.3145 553.451 61.9609 554.541 61C555.631 60.0391 557.061 59.4473 558.83 59.2246L563.875 58.5918ZM575.705 64.0938C575.799 65.1484 576.062 65.957 576.496 66.5195C577.293 67.5391 578.676 68.0488 580.645 68.0488C581.816 68.0488 582.848 67.7969 583.738 67.293C584.629 66.7773 585.074 65.9863 585.074 64.9199C585.074 64.1113 584.717 63.4961 584.002 63.0742C583.545 62.8164 582.643 62.5176 581.295 62.1777L578.781 61.5449C577.176 61.1465 575.992 60.7012 575.23 60.209C573.871 59.3535 573.191 58.1699 573.191 56.6582C573.191 54.877 573.83 53.4355 575.107 52.334C576.396 51.2324 578.125 50.6816 580.293 50.6816C583.129 50.6816 585.174 51.5137 586.428 53.1777C587.213 54.2324 587.594 55.3691 587.57 56.5879H584.582C584.523 55.873 584.271 55.2227 583.826 54.6367C583.1 53.8047 581.84 53.3887 580.047 53.3887C578.852 53.3887 577.943 53.6172 577.322 54.0742C576.713 54.5312 576.408 55.1348 576.408 55.8848C576.408 56.7051 576.812 57.3613 577.621 57.8535C578.09 58.1465 578.781 58.4043 579.695 58.627L581.787 59.1367C584.061 59.6875 585.584 60.2207 586.357 60.7363C587.588 61.5449 588.203 62.8164 588.203 64.5508C588.203 66.2266 587.564 67.6738 586.287 68.8926C585.021 70.1113 583.088 70.7207 580.486 70.7207C577.686 70.7207 575.699 70.0879 574.527 68.8223C573.367 67.5449 572.746 65.9688 572.664 64.0938H575.705ZM599.664 50.752C601 50.752 602.295 51.0684 603.549 51.7012C604.803 52.3223 605.758 53.1309 606.414 54.127C607.047 55.0762 607.469 56.1836 607.68 57.4492C607.867 58.3164 607.961 59.6992 607.961 61.5977H594.162C594.221 63.5078 594.672 65.043 595.516 66.2031C596.359 67.3516 597.666 67.9258 599.436 67.9258C601.088 67.9258 602.406 67.3809 603.391 66.291C603.953 65.6582 604.352 64.9258 604.586 64.0938H607.697C607.615 64.7852 607.34 65.5586 606.871 66.4141C606.414 67.2578 605.898 67.9492 605.324 68.4883C604.363 69.4258 603.174 70.0586 601.756 70.3867C600.994 70.5742 600.133 70.668 599.172 70.668C596.828 70.668 594.842 69.8184 593.213 68.1191C591.584 66.4082 590.77 64.0176 590.77 60.9473C590.77 57.9238 591.59 55.4688 593.23 53.582C594.871 51.6953 597.016 50.752 599.664 50.752ZM604.709 59.084C604.58 57.7129 604.281 56.6172 603.812 55.7969C602.945 54.2734 601.498 53.5117 599.471 53.5117C598.018 53.5117 596.799 54.0391 595.814 55.0938C594.83 56.1367 594.309 57.4668 594.25 59.084H604.709ZM629.143 50.6289C631.264 50.6289 632.986 51.1445 634.311 52.1758C635.646 53.207 636.449 54.9824 636.719 57.502H633.643C633.455 56.3418 633.027 55.3809 632.359 54.6191C631.691 53.8457 630.619 53.459 629.143 53.459C627.127 53.459 625.686 54.4434 624.818 56.4121C624.256 57.6895 623.975 59.2656 623.975 61.1406C623.975 63.0273 624.373 64.6152 625.17 65.9043C625.967 67.1934 627.221 67.8379 628.932 67.8379C630.244 67.8379 631.281 67.4395 632.043 66.6426C632.816 65.834 633.35 64.7324 633.643 63.3379H636.719C636.367 65.834 635.488 67.6621 634.082 68.8223C632.676 69.9707 630.877 70.5449 628.686 70.5449C626.225 70.5449 624.262 69.6484 622.797 67.8555C621.332 66.0508 620.6 63.8008 620.6 61.1055C620.6 57.8008 621.402 55.2285 623.008 53.3887C624.613 51.5488 626.658 50.6289 629.143 50.6289ZM642.309 64.9902C642.309 65.9043 642.643 66.625 643.311 67.1523C643.979 67.6797 644.77 67.9434 645.684 67.9434C646.797 67.9434 647.875 67.6855 648.918 67.1699C650.676 66.3145 651.555 64.9141 651.555 62.9688V60.4199C651.168 60.666 650.67 60.8711 650.061 61.0352C649.451 61.1992 648.854 61.3164 648.268 61.3867L646.352 61.6328C645.203 61.7852 644.342 62.0254 643.768 62.3535C642.795 62.9043 642.309 63.7832 642.309 64.9902ZM649.973 58.5918C650.699 58.498 651.186 58.1934 651.432 57.6777C651.572 57.3965 651.643 56.9922 651.643 56.4648C651.643 55.3867 651.256 54.6074 650.482 54.127C649.721 53.6348 648.625 53.3887 647.195 53.3887C645.543 53.3887 644.371 53.834 643.68 54.7246C643.293 55.2168 643.041 55.9492 642.924 56.9219H639.971C640.029 54.6016 640.779 52.9902 642.221 52.0879C643.674 51.1738 645.355 50.7168 647.266 50.7168C649.48 50.7168 651.279 51.1387 652.662 51.9824C654.033 52.8262 654.719 54.1387 654.719 55.9199V66.7656C654.719 67.0938 654.783 67.3574 654.912 67.5566C655.053 67.7559 655.34 67.8555 655.773 67.8555C655.914 67.8555 656.072 67.8496 656.248 67.8379C656.424 67.8145 656.611 67.7852 656.811 67.75V70.0879C656.318 70.2285 655.943 70.3164 655.686 70.3516C655.428 70.3867 655.076 70.4043 654.631 70.4043C653.541 70.4043 652.75 70.0176 652.258 69.2441C652 68.834 651.818 68.2539 651.713 67.5039C651.068 68.3477 650.143 69.0801 648.936 69.7012C647.729 70.3223 646.398 70.6328 644.945 70.6328C643.199 70.6328 641.77 70.1055 640.656 69.0508C639.555 67.9844 639.004 66.6543 639.004 65.0605C639.004 63.3145 639.549 61.9609 640.639 61C641.729 60.0391 643.158 59.4473 644.928 59.2246L649.973 58.5918ZM660.01 44.1777H663.174V70H660.01V44.1777ZM668.025 44.1777H671.189V70H668.025V44.1777ZM677.957 60.8066C677.957 62.8223 678.385 64.5098 679.24 65.8691C680.096 67.2285 681.467 67.9082 683.354 67.9082C684.818 67.9082 686.02 67.2812 686.957 66.0273C687.906 64.7617 688.381 62.9512 688.381 60.5957C688.381 58.2168 687.895 56.459 686.922 55.3223C685.949 54.1738 684.748 53.5996 683.318 53.5996C681.725 53.5996 680.43 54.209 679.434 55.4277C678.449 56.6465 677.957 58.4395 677.957 60.8066ZM682.721 50.8398C684.162 50.8398 685.369 51.1445 686.342 51.7539C686.904 52.1055 687.543 52.7207 688.258 53.5996V44.0898H691.299V70H688.451V67.3809C687.713 68.541 686.84 69.3789 685.832 69.8945C684.824 70.4102 683.67 70.668 682.369 70.668C680.271 70.668 678.455 69.7891 676.92 68.0312C675.385 66.2617 674.617 63.9121 674.617 60.9824C674.617 58.2402 675.314 55.8672 676.709 53.8633C678.115 51.8477 680.119 50.8398 682.721 50.8398ZM698.418 64.9902C698.418 65.9043 698.752 66.625 699.42 67.1523C700.088 67.6797 700.879 67.9434 701.793 67.9434C702.906 67.9434 703.984 67.6855 705.027 67.1699C706.785 66.3145 707.664 64.9141 707.664 62.9688V60.4199C707.277 60.666 706.779 60.8711 706.17 61.0352C705.561 61.1992 704.963 61.3164 704.377 61.3867L702.461 61.6328C701.312 61.7852 700.451 62.0254 699.877 62.3535C698.904 62.9043 698.418 63.7832 698.418 64.9902ZM706.082 58.5918C706.809 58.498 707.295 58.1934 707.541 57.6777C707.682 57.3965 707.752 56.9922 707.752 56.4648C707.752 55.3867 707.365 54.6074 706.592 54.127C705.83 53.6348 704.734 53.3887 703.305 53.3887C701.652 53.3887 700.48 53.834 699.789 54.7246C699.402 55.2168 699.15 55.9492 699.033 56.9219H696.08C696.139 54.6016 696.889 52.9902 698.33 52.0879C699.783 51.1738 701.465 50.7168 703.375 50.7168C705.59 50.7168 707.389 51.1387 708.771 51.9824C710.143 52.8262 710.828 54.1387 710.828 55.9199V66.7656C710.828 67.0938 710.893 67.3574 711.021 67.5566C711.162 67.7559 711.449 67.8555 711.883 67.8555C712.023 67.8555 712.182 67.8496 712.357 67.8379C712.533 67.8145 712.721 67.7852 712.92 67.75V70.0879C712.428 70.2285 712.053 70.3164 711.795 70.3516C711.537 70.3867 711.186 70.4043 710.74 70.4043C709.65 70.4043 708.859 70.0176 708.367 69.2441C708.109 68.834 707.928 68.2539 707.822 67.5039C707.178 68.3477 706.252 69.0801 705.045 69.7012C703.838 70.3223 702.508 70.6328 701.055 70.6328C699.309 70.6328 697.879 70.1055 696.766 69.0508C695.664 67.9844 695.113 66.6543 695.113 65.0605C695.113 63.3145 695.658 61.9609 696.748 61C697.838 60.0391 699.268 59.4473 701.037 59.2246L706.082 58.5918ZM716.664 45.918H719.863V51.1738H722.869V53.7578H719.863V66.0449C719.863 66.7012 720.086 67.1406 720.531 67.3633C720.777 67.4922 721.188 67.5566 721.762 67.5566C721.914 67.5566 722.078 67.5566 722.254 67.5566C722.43 67.5449 722.635 67.5273 722.869 67.5039V70C722.506 70.1055 722.125 70.1816 721.727 70.2285C721.34 70.2754 720.918 70.2988 720.461 70.2988C718.984 70.2988 717.982 69.9238 717.455 69.1738C716.928 68.4121 716.664 67.4277 716.664 66.2207V53.7578H714.115V51.1738H716.664V45.918ZM728.477 64.9902C728.477 65.9043 728.811 66.625 729.479 67.1523C730.146 67.6797 730.938 67.9434 731.852 67.9434C732.965 67.9434 734.043 67.6855 735.086 67.1699C736.844 66.3145 737.723 64.9141 737.723 62.9688V60.4199C737.336 60.666 736.838 60.8711 736.229 61.0352C735.619 61.1992 735.021 61.3164 734.436 61.3867L732.52 61.6328C731.371 61.7852 730.51 62.0254 729.936 62.3535C728.963 62.9043 728.477 63.7832 728.477 64.9902ZM736.141 58.5918C736.867 58.498 737.354 58.1934 737.6 57.6777C737.74 57.3965 737.811 56.9922 737.811 56.4648C737.811 55.3867 737.424 54.6074 736.65 54.127C735.889 53.6348 734.793 53.3887 733.363 53.3887C731.711 53.3887 730.539 53.834 729.848 54.7246C729.461 55.2168 729.209 55.9492 729.092 56.9219H726.139C726.197 54.6016 726.947 52.9902 728.389 52.0879C729.842 51.1738 731.523 50.7168 733.434 50.7168C735.648 50.7168 737.447 51.1387 738.83 51.9824C740.201 52.8262 740.887 54.1387 740.887 55.9199V66.7656C740.887 67.0938 740.951 67.3574 741.08 67.5566C741.221 67.7559 741.508 67.8555 741.941 67.8555C742.082 67.8555 742.24 67.8496 742.416 67.8379C742.592 67.8145 742.779 67.7852 742.979 67.75V70.0879C742.486 70.2285 742.111 70.3164 741.854 70.3516C741.596 70.3867 741.244 70.4043 740.799 70.4043C739.709 70.4043 738.918 70.0176 738.426 69.2441C738.168 68.834 737.986 68.2539 737.881 67.5039C737.236 68.3477 736.311 69.0801 735.104 69.7012C733.896 70.3223 732.566 70.6328 731.113 70.6328C729.367 70.6328 727.938 70.1055 726.824 69.0508C725.723 67.9844 725.172 66.6543 725.172 65.0605C725.172 63.3145 725.717 61.9609 726.807 61C727.896 60.0391 729.326 59.4473 731.096 59.2246L736.141 58.5918ZM364.146 95.4199C362.701 97.4056 361.725 98.8672 361.217 99.8047C360.455 101.23 359.876 102.878 359.479 104.746C359.075 106.634 358.971 108.359 359.166 109.922C359.29 110.885 359.638 112.272 360.211 114.082H359.029C358.391 112.598 358.001 111.65 357.857 111.24C357.721 110.83 357.594 110.273 357.477 109.57C357.314 108.607 357.278 107.578 357.369 106.484C357.421 105.918 357.499 105.378 357.604 104.863C358.014 102.936 358.681 101.221 359.605 99.7168C360.198 98.7598 361.305 97.3275 362.926 95.4199H364.146ZM376.803 95.6543L376.441 97.3633H371.607L368.922 110H366.949L369.635 97.3633H364.801L365.162 95.6543H376.803ZM381.422 104.6C381.63 103.623 381.643 102.829 381.461 102.217C381.168 101.253 380.416 100.771 379.205 100.771C378.131 100.771 377.262 101.182 376.598 102.002C375.94 102.822 375.488 103.812 375.24 104.971C375.006 106.084 375.051 107.012 375.377 107.754C375.709 108.496 376.406 108.867 377.467 108.867C378.632 108.867 379.524 108.428 380.143 107.549C380.768 106.663 381.194 105.68 381.422 104.6ZM383.268 104.551C382.91 106.237 382.203 107.63 381.148 108.73C380.094 109.831 378.704 110.381 376.979 110.381C375.54 110.381 374.501 109.896 373.863 108.926C373.225 107.949 373.079 106.641 373.424 105C373.801 103.242 374.547 101.842 375.66 100.801C376.773 99.7591 378.082 99.2383 379.586 99.2383C380.934 99.2383 381.975 99.6875 382.711 100.586C383.453 101.484 383.639 102.806 383.268 104.551ZM387.223 95.6543H388.912L387.135 103.984L392.594 99.541H394.84L390.006 103.457L392.848 110H390.602L388.453 104.727L386.695 106.074L385.865 110H384.176L387.223 95.6543ZM404.186 101.182C404.426 101.709 404.531 102.324 404.498 103.027C404.505 103.509 404.394 104.277 404.166 105.332H396.5C396.305 106.393 396.373 107.246 396.705 107.891C397.044 108.529 397.704 108.848 398.688 108.848C399.605 108.848 400.4 108.545 401.07 107.939C401.461 107.588 401.77 107.181 401.998 106.719H403.727C403.596 107.103 403.352 107.533 402.994 108.008C402.643 108.477 402.275 108.861 401.891 109.16C401.246 109.681 400.51 110.033 399.684 110.215C399.234 110.319 398.743 110.371 398.209 110.371C396.907 110.371 395.904 109.899 395.201 108.955C394.498 108.005 394.329 106.676 394.693 104.971C395.051 103.291 395.797 101.927 396.93 100.879C398.062 99.8307 399.365 99.3066 400.836 99.3066C401.578 99.3066 402.262 99.4824 402.887 99.834C403.512 100.179 403.945 100.628 404.186 101.182ZM402.652 103.936C402.743 103.174 402.708 102.565 402.545 102.109C402.245 101.263 401.533 100.84 400.406 100.84C399.599 100.84 398.86 101.133 398.189 101.719C397.519 102.298 397.07 103.037 396.842 103.936H402.652ZM407.564 99.541H409.234L408.922 101.025C409.547 100.413 410.162 99.974 410.768 99.707C411.38 99.4401 412.024 99.3066 412.701 99.3066C414.186 99.3066 415.077 99.8242 415.377 100.859C415.546 101.426 415.52 102.236 415.299 103.291L413.873 110H412.086L413.482 103.408C413.619 102.77 413.635 102.256 413.531 101.865C413.355 101.214 412.857 100.889 412.037 100.889C411.62 100.889 411.269 100.931 410.982 101.016C410.468 101.159 409.983 101.445 409.527 101.875C409.163 102.22 408.896 102.578 408.727 102.949C408.564 103.314 408.411 103.838 408.268 104.521L407.105 110H405.348L407.564 99.541ZM425.504 108.857C426.122 108.857 426.754 108.714 427.398 108.428C428.473 107.952 429.127 107.174 429.361 106.094L429.654 104.678C429.413 104.814 429.114 104.928 428.756 105.02C428.398 105.111 428.053 105.176 427.721 105.215L426.627 105.352C425.969 105.436 425.462 105.57 425.104 105.752C424.498 106.058 424.124 106.546 423.98 107.217C423.87 107.725 423.967 108.125 424.273 108.418C424.586 108.711 424.996 108.857 425.504 108.857ZM428.99 103.662C429.407 103.61 429.716 103.441 429.918 103.154C430.029 102.998 430.113 102.773 430.172 102.48C430.302 101.882 430.182 101.449 429.811 101.182C429.439 100.908 428.857 100.771 428.062 100.771C427.145 100.771 426.441 101.019 425.953 101.514C425.68 101.787 425.455 102.194 425.279 102.734H423.639C423.945 101.445 424.553 100.55 425.465 100.049C426.376 99.541 427.363 99.2871 428.424 99.2871C429.654 99.2871 430.602 99.5215 431.266 99.9902C431.93 100.459 432.158 101.188 431.949 102.178L430.67 108.203C430.631 108.385 430.634 108.532 430.68 108.643C430.732 108.753 430.878 108.809 431.119 108.809C431.197 108.809 431.285 108.805 431.383 108.799C431.487 108.786 431.598 108.77 431.715 108.75L431.432 110.049C431.145 110.127 430.927 110.176 430.777 110.195C430.634 110.215 430.439 110.225 430.191 110.225C429.586 110.225 429.192 110.01 429.01 109.58C428.912 109.352 428.88 109.03 428.912 108.613C428.45 109.082 427.848 109.489 427.105 109.834C426.363 110.179 425.589 110.352 424.781 110.352C423.811 110.352 423.079 110.059 422.584 109.473C422.096 108.88 421.946 108.141 422.135 107.256C422.343 106.286 422.805 105.534 423.521 105C424.244 104.466 425.11 104.137 426.119 104.014L428.99 103.662ZM437.535 108.838C438.349 108.838 439.091 108.49 439.762 107.793C440.432 107.09 440.908 106.084 441.188 104.775C441.467 103.454 441.406 102.477 441.002 101.846C440.598 101.208 439.999 100.889 439.205 100.889C438.32 100.889 437.529 101.227 436.832 101.904C436.142 102.581 435.657 103.577 435.377 104.893C435.136 106.012 435.172 106.95 435.484 107.705C435.803 108.46 436.487 108.838 437.535 108.838ZM441.1 99.8633C441.373 100.059 441.656 100.4 441.949 100.889L443.072 95.6055H444.762L441.705 110H440.123L440.426 108.545C439.879 109.189 439.293 109.655 438.668 109.941C438.049 110.228 437.379 110.371 436.656 110.371C435.491 110.371 434.586 109.883 433.941 108.906C433.297 107.923 433.15 106.618 433.502 104.99C433.821 103.467 434.488 102.148 435.504 101.035C436.52 99.9154 437.75 99.3555 439.195 99.3555C439.996 99.3555 440.631 99.5247 441.1 99.8633ZM448.668 108.838C449.482 108.838 450.224 108.49 450.895 107.793C451.565 107.09 452.04 106.084 452.32 104.775C452.6 103.454 452.538 102.477 452.135 101.846C451.731 101.208 451.132 100.889 450.338 100.889C449.452 100.889 448.661 101.227 447.965 101.904C447.275 102.581 446.79 103.577 446.51 104.893C446.269 106.012 446.305 106.95 446.617 107.705C446.936 108.46 447.62 108.838 448.668 108.838ZM452.232 99.8633C452.506 100.059 452.789 100.4 453.082 100.889L454.205 95.6055H455.895L452.838 110H451.256L451.559 108.545C451.012 109.189 450.426 109.655 449.801 109.941C449.182 110.228 448.512 110.371 447.789 110.371C446.624 110.371 445.719 109.883 445.074 108.906C444.43 107.923 444.283 106.618 444.635 104.99C444.954 103.467 445.621 102.148 446.637 101.035C447.652 99.9154 448.883 99.3555 450.328 99.3555C451.129 99.3555 451.764 99.5247 452.232 99.8633ZM457.711 99.541H459.381L459 101.348C459.208 100.996 459.632 100.57 460.27 100.068C460.914 99.5605 461.585 99.3066 462.281 99.3066C462.314 99.3066 462.369 99.3099 462.447 99.3164C462.525 99.3229 462.656 99.3359 462.838 99.3555L462.447 101.211C462.343 101.191 462.249 101.178 462.164 101.172C462.079 101.165 461.985 101.162 461.881 101.162C460.995 101.162 460.253 101.449 459.654 102.021C459.062 102.588 458.684 103.242 458.521 103.984L457.252 110H455.494L457.711 99.541ZM472.076 101.182C472.317 101.709 472.421 102.324 472.389 103.027C472.395 103.509 472.285 104.277 472.057 105.332H464.391C464.195 106.393 464.264 107.246 464.596 107.891C464.934 108.529 465.595 108.848 466.578 108.848C467.496 108.848 468.29 108.545 468.961 107.939C469.352 107.588 469.661 107.181 469.889 106.719H471.617C471.487 107.103 471.243 107.533 470.885 108.008C470.533 108.477 470.165 108.861 469.781 109.16C469.137 109.681 468.401 110.033 467.574 110.215C467.125 110.319 466.633 110.371 466.1 110.371C464.798 110.371 463.795 109.899 463.092 108.955C462.389 108.005 462.219 106.676 462.584 104.971C462.942 103.291 463.688 101.927 464.82 100.879C465.953 99.8307 467.255 99.3066 468.727 99.3066C469.469 99.3066 470.152 99.4824 470.777 99.834C471.402 100.179 471.835 100.628 472.076 101.182ZM470.543 103.936C470.634 103.174 470.598 102.565 470.436 102.109C470.136 101.263 469.423 100.84 468.297 100.84C467.49 100.84 466.751 101.133 466.08 101.719C465.41 102.298 464.96 103.037 464.732 103.936H470.543ZM474.977 106.719C474.905 107.305 474.957 107.754 475.133 108.066C475.452 108.633 476.158 108.916 477.252 108.916C477.903 108.916 478.505 108.776 479.059 108.496C479.618 108.21 479.96 107.77 480.084 107.178C480.182 106.729 480.055 106.387 479.703 106.152C479.482 106.009 479.016 105.843 478.307 105.654L476.988 105.303C476.142 105.081 475.536 104.834 475.172 104.561C474.514 104.085 474.277 103.428 474.459 102.588C474.667 101.598 475.191 100.798 476.031 100.186C476.878 99.5736 477.903 99.2676 479.107 99.2676C480.683 99.2676 481.721 99.7298 482.223 100.654C482.535 101.24 482.613 101.872 482.457 102.549H480.797C480.849 102.152 480.784 101.79 480.602 101.465C480.296 101.003 479.645 100.771 478.648 100.771C477.984 100.771 477.454 100.898 477.057 101.152C476.666 101.406 476.425 101.742 476.334 102.158C476.236 102.614 476.383 102.979 476.773 103.252C477.001 103.415 477.356 103.558 477.838 103.682L478.941 103.965C480.139 104.271 480.924 104.567 481.295 104.854C481.881 105.303 482.07 106.009 481.861 106.973C481.666 107.904 481.142 108.708 480.289 109.385C479.443 110.062 478.297 110.4 476.852 110.4C475.296 110.4 474.267 110.049 473.766 109.346C473.271 108.636 473.111 107.76 473.287 106.719H474.977ZM484.977 106.719C484.905 107.305 484.957 107.754 485.133 108.066C485.452 108.633 486.158 108.916 487.252 108.916C487.903 108.916 488.505 108.776 489.059 108.496C489.618 108.21 489.96 107.77 490.084 107.178C490.182 106.729 490.055 106.387 489.703 106.152C489.482 106.009 489.016 105.843 488.307 105.654L486.988 105.303C486.142 105.081 485.536 104.834 485.172 104.561C484.514 104.085 484.277 103.428 484.459 102.588C484.667 101.598 485.191 100.798 486.031 100.186C486.878 99.5736 487.903 99.2676 489.107 99.2676C490.683 99.2676 491.721 99.7298 492.223 100.654C492.535 101.24 492.613 101.872 492.457 102.549H490.797C490.849 102.152 490.784 101.79 490.602 101.465C490.296 101.003 489.645 100.771 488.648 100.771C487.984 100.771 487.454 100.898 487.057 101.152C486.666 101.406 486.425 101.742 486.334 102.158C486.236 102.614 486.383 102.979 486.773 103.252C487.001 103.415 487.356 103.558 487.838 103.682L488.941 103.965C490.139 104.271 490.924 104.567 491.295 104.854C491.881 105.303 492.07 106.009 491.861 106.973C491.666 107.904 491.142 108.708 490.289 109.385C489.443 110.062 488.297 110.4 486.852 110.4C485.296 110.4 484.267 110.049 483.766 109.346C483.271 108.636 483.111 107.76 483.287 106.719H484.977ZM508.775 101.182C509.016 101.709 509.12 102.324 509.088 103.027C509.094 103.509 508.984 104.277 508.756 105.332H501.09C500.895 106.393 500.963 107.246 501.295 107.891C501.633 108.529 502.294 108.848 503.277 108.848C504.195 108.848 504.99 108.545 505.66 107.939C506.051 107.588 506.36 107.181 506.588 106.719H508.316C508.186 107.103 507.942 107.533 507.584 108.008C507.232 108.477 506.865 108.861 506.48 109.16C505.836 109.681 505.1 110.033 504.273 110.215C503.824 110.319 503.333 110.371 502.799 110.371C501.497 110.371 500.494 109.899 499.791 108.955C499.088 108.005 498.919 106.676 499.283 104.971C499.641 103.291 500.387 101.927 501.52 100.879C502.652 99.8307 503.954 99.3066 505.426 99.3066C506.168 99.3066 506.852 99.4824 507.477 99.834C508.102 100.179 508.535 100.628 508.775 101.182ZM507.242 103.936C507.333 103.174 507.298 102.565 507.135 102.109C506.835 101.263 506.122 100.84 504.996 100.84C504.189 100.84 503.45 101.133 502.779 101.719C502.109 102.298 501.66 103.037 501.432 103.936H507.242ZM512.154 99.541H513.824L513.512 101.025C514.137 100.413 514.752 99.974 515.357 99.707C515.969 99.4401 516.614 99.3066 517.291 99.3066C518.775 99.3066 519.667 99.8242 519.967 100.859C520.136 101.426 520.11 102.236 519.889 103.291L518.463 110H516.676L518.072 103.408C518.209 102.77 518.225 102.256 518.121 101.865C517.945 101.214 517.447 100.889 516.627 100.889C516.21 100.889 515.859 100.931 515.572 101.016C515.058 101.159 514.573 101.445 514.117 101.875C513.753 102.22 513.486 102.578 513.316 102.949C513.154 103.314 513.001 103.838 512.857 104.521L511.695 110H509.938L512.154 99.541ZM530.787 103.057H529.078C529.111 102.412 528.987 101.878 528.707 101.455C528.427 101.025 527.877 100.811 527.057 100.811C525.937 100.811 525.019 101.357 524.303 102.451C523.84 103.161 523.499 104.036 523.277 105.078C523.049 106.126 523.082 107.008 523.375 107.725C523.668 108.441 524.29 108.799 525.24 108.799C525.969 108.799 526.594 108.577 527.115 108.135C527.636 107.686 528.059 107.074 528.385 106.299H530.094C529.605 107.686 528.902 108.701 527.984 109.346C527.066 109.984 525.999 110.303 524.781 110.303C523.414 110.303 522.428 109.805 521.822 108.809C521.223 107.806 521.083 106.556 521.402 105.059C521.793 103.223 522.542 101.794 523.648 100.771C524.762 99.7493 526.008 99.2383 527.389 99.2383C528.567 99.2383 529.462 99.5247 530.074 100.098C530.693 100.671 530.93 101.657 530.787 103.057ZM539.41 104.6C539.618 103.623 539.632 102.829 539.449 102.217C539.156 101.253 538.404 100.771 537.193 100.771C536.119 100.771 535.25 101.182 534.586 102.002C533.928 102.822 533.476 103.812 533.229 104.971C532.994 106.084 533.04 107.012 533.365 107.754C533.697 108.496 534.394 108.867 535.455 108.867C536.62 108.867 537.512 108.428 538.131 107.549C538.756 106.663 539.182 105.68 539.41 104.6ZM541.256 104.551C540.898 106.237 540.191 107.63 539.137 108.73C538.082 109.831 536.692 110.381 534.967 110.381C533.528 110.381 532.49 109.896 531.852 108.926C531.214 107.949 531.067 106.641 531.412 105C531.79 103.242 532.535 101.842 533.648 100.801C534.762 99.7591 536.07 99.2383 537.574 99.2383C538.922 99.2383 539.964 99.6875 540.699 100.586C541.441 101.484 541.627 102.806 541.256 104.551ZM546.559 108.838C547.372 108.838 548.115 108.49 548.785 107.793C549.456 107.09 549.931 106.084 550.211 104.775C550.491 103.454 550.429 102.477 550.025 101.846C549.622 101.208 549.023 100.889 548.229 100.889C547.343 100.889 546.552 101.227 545.855 101.904C545.165 102.581 544.68 103.577 544.4 104.893C544.16 106.012 544.195 106.95 544.508 107.705C544.827 108.46 545.51 108.838 546.559 108.838ZM550.123 99.8633C550.396 100.059 550.68 100.4 550.973 100.889L552.096 95.6055H553.785L550.729 110H549.146L549.449 108.545C548.902 109.189 548.316 109.655 547.691 109.941C547.073 110.228 546.402 110.371 545.68 110.371C544.514 110.371 543.609 109.883 542.965 108.906C542.32 107.923 542.174 106.618 542.525 104.99C542.844 103.467 543.512 102.148 544.527 101.035C545.543 99.9154 546.773 99.3555 548.219 99.3555C549.02 99.3555 549.654 99.5247 550.123 99.8633ZM563.307 101.182C563.548 101.709 563.652 102.324 563.619 103.027C563.626 103.509 563.515 104.277 563.287 105.332H555.621C555.426 106.393 555.494 107.246 555.826 107.891C556.165 108.529 556.826 108.848 557.809 108.848C558.727 108.848 559.521 108.545 560.191 107.939C560.582 107.588 560.891 107.181 561.119 106.719H562.848C562.717 107.103 562.473 107.533 562.115 108.008C561.764 108.477 561.396 108.861 561.012 109.16C560.367 109.681 559.632 110.033 558.805 110.215C558.355 110.319 557.864 110.371 557.33 110.371C556.028 110.371 555.025 109.899 554.322 108.955C553.619 108.005 553.45 106.676 553.814 104.971C554.173 103.291 554.918 101.927 556.051 100.879C557.184 99.8307 558.486 99.3066 559.957 99.3066C560.699 99.3066 561.383 99.4824 562.008 99.834C562.633 100.179 563.066 100.628 563.307 101.182ZM561.773 103.936C561.865 103.174 561.829 102.565 561.666 102.109C561.367 101.263 560.654 100.84 559.527 100.84C558.72 100.84 557.981 101.133 557.311 101.719C556.64 102.298 556.191 103.037 555.963 103.936H561.773ZM568.824 108.838C569.638 108.838 570.38 108.49 571.051 107.793C571.721 107.09 572.197 106.084 572.477 104.775C572.757 103.454 572.695 102.477 572.291 101.846C571.887 101.208 571.288 100.889 570.494 100.889C569.609 100.889 568.818 101.227 568.121 101.904C567.431 102.581 566.946 103.577 566.666 104.893C566.425 106.012 566.461 106.95 566.773 107.705C567.092 108.46 567.776 108.838 568.824 108.838ZM572.389 99.8633C572.662 100.059 572.945 100.4 573.238 100.889L574.361 95.6055H576.051L572.994 110H571.412L571.715 108.545C571.168 109.189 570.582 109.655 569.957 109.941C569.339 110.228 568.668 110.371 567.945 110.371C566.78 110.371 565.875 109.883 565.23 108.906C564.586 107.923 564.439 106.618 564.791 104.99C565.11 103.467 565.777 102.148 566.793 101.035C567.809 99.9154 569.039 99.3555 570.484 99.3555C571.285 99.3555 571.92 99.5247 572.389 99.8633ZM583.375 99.5898H585.162L582.955 110H581.168L583.375 99.5898ZM584.215 95.6543H586.002L585.572 97.6465H583.785L584.215 95.6543ZM587.838 99.541H589.508L589.195 101.025C589.82 100.413 590.436 99.974 591.041 99.707C591.653 99.4401 592.298 99.3066 592.975 99.3066C594.459 99.3066 595.351 99.8242 595.65 100.859C595.82 101.426 595.794 102.236 595.572 103.291L594.146 110H592.359L593.756 103.408C593.893 102.77 593.909 102.256 593.805 101.865C593.629 101.214 593.131 100.889 592.311 100.889C591.894 100.889 591.542 100.931 591.256 101.016C590.742 101.159 590.257 101.445 589.801 101.875C589.436 102.22 589.169 102.578 589 102.949C588.837 103.314 588.684 103.838 588.541 104.521L587.379 110H585.621L587.838 99.541ZM605.514 96.6211H607.291L606.666 99.541H608.336L608.033 100.977H606.363L604.908 107.803C604.83 108.167 604.902 108.411 605.123 108.535C605.247 108.607 605.468 108.643 605.787 108.643C605.872 108.643 605.963 108.643 606.061 108.643C606.158 108.636 606.275 108.626 606.412 108.613L606.119 110C605.904 110.059 605.683 110.101 605.455 110.127C605.234 110.153 604.996 110.166 604.742 110.166C603.922 110.166 603.408 109.958 603.199 109.541C602.997 109.118 602.968 108.571 603.111 107.9L604.586 100.977H603.17L603.473 99.541H604.889L605.514 96.6211ZM610.943 95.6055H612.701L611.559 100.957C612.092 100.43 612.548 100.059 612.926 99.8438C613.57 99.4727 614.316 99.2871 615.162 99.2871C616.679 99.2871 617.594 99.8177 617.906 100.879C618.076 101.458 618.053 102.262 617.838 103.291L616.412 110H614.605L616.002 103.408C616.165 102.64 616.188 102.077 616.07 101.719C615.868 101.146 615.328 100.859 614.449 100.859C613.72 100.859 613.007 101.11 612.311 101.611C611.614 102.113 611.116 103.06 610.816 104.453L609.645 110H607.887L610.943 95.6055ZM628.99 101.182C629.231 101.709 629.335 102.324 629.303 103.027C629.309 103.509 629.199 104.277 628.971 105.332H621.305C621.109 106.393 621.178 107.246 621.51 107.891C621.848 108.529 622.509 108.848 623.492 108.848C624.41 108.848 625.204 108.545 625.875 107.939C626.266 107.588 626.575 107.181 626.803 106.719H628.531C628.401 107.103 628.157 107.533 627.799 108.008C627.447 108.477 627.079 108.861 626.695 109.16C626.051 109.681 625.315 110.033 624.488 110.215C624.039 110.319 623.548 110.371 623.014 110.371C621.712 110.371 620.709 109.899 620.006 108.955C619.303 108.005 619.133 106.676 619.498 104.971C619.856 103.291 620.602 101.927 621.734 100.879C622.867 99.8307 624.169 99.3066 625.641 99.3066C626.383 99.3066 627.066 99.4824 627.691 99.834C628.316 100.179 628.749 100.628 628.99 101.182ZM627.457 103.936C627.548 103.174 627.512 102.565 627.35 102.109C627.05 101.263 626.337 100.84 625.211 100.84C624.404 100.84 623.665 101.133 622.994 101.719C622.324 102.298 621.874 103.037 621.646 103.936H627.457ZM640.152 96.4355C639.684 96.5202 639.296 96.8457 638.99 97.4121C638.84 97.6921 638.736 97.9688 638.678 98.2422C638.671 98.2747 638.668 98.304 638.668 98.3301C638.668 98.3496 638.661 98.3984 638.648 98.4766H639.713L639.264 100.605H637.184L637.604 98.6426C637.805 97.679 638.154 96.9368 638.648 96.416C639.143 95.8952 639.71 95.5957 640.348 95.5176L640.152 96.4355ZM643.443 96.4355C643.072 96.4941 642.757 96.696 642.496 97.041C642.236 97.3861 642.06 97.7832 641.969 98.2324C641.956 98.2715 641.946 98.3105 641.939 98.3496C641.939 98.3887 641.939 98.431 641.939 98.4766H643.004L642.555 100.605H640.465L640.885 98.6426C641.048 97.8678 641.357 97.1777 641.812 96.5723C642.268 95.9603 642.877 95.6087 643.639 95.5176L643.443 96.4355ZM645.572 96.6211H647.35L646.725 99.541H648.395L648.092 100.977H646.422L644.967 107.803C644.889 108.167 644.96 108.411 645.182 108.535C645.305 108.607 645.527 108.643 645.846 108.643C645.93 108.643 646.021 108.643 646.119 108.643C646.217 108.636 646.334 108.626 646.471 108.613L646.178 110C645.963 110.059 645.742 110.101 645.514 110.127C645.292 110.153 645.055 110.166 644.801 110.166C643.98 110.166 643.466 109.958 643.258 109.541C643.056 109.118 643.027 108.571 643.17 107.9L644.645 100.977H643.229L643.531 99.541H644.947L645.572 96.6211ZM656.285 104.6C656.493 103.623 656.507 102.829 656.324 102.217C656.031 101.253 655.279 100.771 654.068 100.771C652.994 100.771 652.125 101.182 651.461 102.002C650.803 102.822 650.351 103.812 650.104 104.971C649.869 106.084 649.915 107.012 650.24 107.754C650.572 108.496 651.269 108.867 652.33 108.867C653.495 108.867 654.387 108.428 655.006 107.549C655.631 106.663 656.057 105.68 656.285 104.6ZM658.131 104.551C657.773 106.237 657.066 107.63 656.012 108.73C654.957 109.831 653.567 110.381 651.842 110.381C650.403 110.381 649.365 109.896 648.727 108.926C648.089 107.949 647.942 106.641 648.287 105C648.665 103.242 649.41 101.842 650.523 100.801C651.637 99.7591 652.945 99.2383 654.449 99.2383C655.797 99.2383 656.839 99.6875 657.574 100.586C658.316 101.484 658.502 102.806 658.131 104.551ZM663.99 99.8242C664.498 99.7331 664.895 99.375 665.182 98.75C665.351 98.3789 665.452 98.0566 665.484 97.7832H664.42L664.879 95.6543H666.969L666.549 97.6172C666.386 98.3919 666.08 99.0853 665.631 99.6973C665.182 100.303 664.57 100.651 663.795 100.742L663.99 99.8242ZM660.709 99.8242C661.217 99.7331 661.617 99.375 661.91 98.75C662.079 98.3789 662.177 98.0566 662.203 97.7832H661.139L661.598 95.6543H663.678L663.258 97.6172C663.095 98.3919 662.789 99.082 662.34 99.6875C661.891 100.286 661.282 100.638 660.514 100.742L660.709 99.8242ZM674.762 108.857C675.38 108.857 676.012 108.714 676.656 108.428C677.73 107.952 678.385 107.174 678.619 106.094L678.912 104.678C678.671 104.814 678.372 104.928 678.014 105.02C677.656 105.111 677.311 105.176 676.979 105.215L675.885 105.352C675.227 105.436 674.719 105.57 674.361 105.752C673.756 106.058 673.382 106.546 673.238 107.217C673.128 107.725 673.225 108.125 673.531 108.418C673.844 108.711 674.254 108.857 674.762 108.857ZM678.248 103.662C678.665 103.61 678.974 103.441 679.176 103.154C679.286 102.998 679.371 102.773 679.43 102.48C679.56 101.882 679.439 101.449 679.068 101.182C678.697 100.908 678.115 100.771 677.32 100.771C676.402 100.771 675.699 101.019 675.211 101.514C674.938 101.787 674.713 102.194 674.537 102.734H672.896C673.202 101.445 673.811 100.55 674.723 100.049C675.634 99.541 676.62 99.2871 677.682 99.2871C678.912 99.2871 679.859 99.5215 680.523 99.9902C681.188 100.459 681.415 101.188 681.207 102.178L679.928 108.203C679.889 108.385 679.892 108.532 679.938 108.643C679.99 108.753 680.136 108.809 680.377 108.809C680.455 108.809 680.543 108.805 680.641 108.799C680.745 108.786 680.855 108.77 680.973 108.75L680.689 110.049C680.403 110.127 680.185 110.176 680.035 110.195C679.892 110.215 679.697 110.225 679.449 110.225C678.844 110.225 678.45 110.01 678.268 109.58C678.17 109.352 678.137 109.03 678.17 108.613C677.708 109.082 677.105 109.489 676.363 109.834C675.621 110.179 674.846 110.352 674.039 110.352C673.069 110.352 672.337 110.059 671.842 109.473C671.354 108.88 671.204 108.141 671.393 107.256C671.601 106.286 672.063 105.534 672.779 105C673.502 104.466 674.368 104.137 675.377 104.014L678.248 103.662ZM686.793 108.838C687.607 108.838 688.349 108.49 689.02 107.793C689.69 107.09 690.165 106.084 690.445 104.775C690.725 103.454 690.663 102.477 690.26 101.846C689.856 101.208 689.257 100.889 688.463 100.889C687.577 100.889 686.786 101.227 686.09 101.904C685.4 102.581 684.915 103.577 684.635 104.893C684.394 106.012 684.43 106.95 684.742 107.705C685.061 108.46 685.745 108.838 686.793 108.838ZM690.357 99.8633C690.631 100.059 690.914 100.4 691.207 100.889L692.33 95.6055H694.02L690.963 110H689.381L689.684 108.545C689.137 109.189 688.551 109.655 687.926 109.941C687.307 110.228 686.637 110.371 685.914 110.371C684.749 110.371 683.844 109.883 683.199 108.906C682.555 107.923 682.408 106.618 682.76 104.99C683.079 103.467 683.746 102.148 684.762 101.035C685.777 99.9154 687.008 99.3555 688.453 99.3555C689.254 99.3555 689.889 99.5247 690.357 99.8633ZM697.926 108.838C698.74 108.838 699.482 108.49 700.152 107.793C700.823 107.09 701.298 106.084 701.578 104.775C701.858 103.454 701.796 102.477 701.393 101.846C700.989 101.208 700.39 100.889 699.596 100.889C698.71 100.889 697.919 101.227 697.223 101.904C696.533 102.581 696.048 103.577 695.768 104.893C695.527 106.012 695.562 106.95 695.875 107.705C696.194 108.46 696.878 108.838 697.926 108.838ZM701.49 99.8633C701.764 100.059 702.047 100.4 702.34 100.889L703.463 95.6055H705.152L702.096 110H700.514L700.816 108.545C700.27 109.189 699.684 109.655 699.059 109.941C698.44 110.228 697.77 110.371 697.047 110.371C695.882 110.371 694.977 109.883 694.332 108.906C693.688 107.923 693.541 106.618 693.893 104.99C694.212 103.467 694.879 102.148 695.895 101.035C696.91 99.9154 698.141 99.3555 699.586 99.3555C700.387 99.3555 701.021 99.5247 701.49 99.8633ZM706.969 99.541H708.639L708.258 101.348C708.466 100.996 708.889 100.57 709.527 100.068C710.172 99.5605 710.842 99.3066 711.539 99.3066C711.572 99.3066 711.627 99.3099 711.705 99.3164C711.783 99.3229 711.913 99.3359 712.096 99.3555L711.705 101.211C711.601 101.191 711.507 101.178 711.422 101.172C711.337 101.165 711.243 101.162 711.139 101.162C710.253 101.162 709.511 101.449 708.912 102.021C708.32 102.588 707.942 103.242 707.779 103.984L706.51 110H704.752L706.969 99.541ZM721.334 101.182C721.575 101.709 721.679 102.324 721.646 103.027C721.653 103.509 721.542 104.277 721.314 105.332H713.648C713.453 106.393 713.521 107.246 713.854 107.891C714.192 108.529 714.853 108.848 715.836 108.848C716.754 108.848 717.548 108.545 718.219 107.939C718.609 107.588 718.919 107.181 719.146 106.719H720.875C720.745 107.103 720.501 107.533 720.143 108.008C719.791 108.477 719.423 108.861 719.039 109.16C718.395 109.681 717.659 110.033 716.832 110.215C716.383 110.319 715.891 110.371 715.357 110.371C714.055 110.371 713.053 109.899 712.35 108.955C711.646 108.005 711.477 106.676 711.842 104.971C712.2 103.291 712.945 101.927 714.078 100.879C715.211 99.8307 716.513 99.3066 717.984 99.3066C718.727 99.3066 719.41 99.4824 720.035 99.834C720.66 100.179 721.093 100.628 721.334 101.182ZM719.801 103.936C719.892 103.174 719.856 102.565 719.693 102.109C719.394 101.263 718.681 100.84 717.555 100.84C716.747 100.84 716.008 101.133 715.338 101.719C714.667 102.298 714.218 103.037 713.99 103.936H719.801ZM724.234 106.719C724.163 107.305 724.215 107.754 724.391 108.066C724.71 108.633 725.416 108.916 726.51 108.916C727.161 108.916 727.763 108.776 728.316 108.496C728.876 108.21 729.218 107.77 729.342 107.178C729.439 106.729 729.312 106.387 728.961 106.152C728.74 106.009 728.274 105.843 727.564 105.654L726.246 105.303C725.4 105.081 724.794 104.834 724.43 104.561C723.772 104.085 723.535 103.428 723.717 102.588C723.925 101.598 724.449 100.798 725.289 100.186C726.135 99.5736 727.161 99.2676 728.365 99.2676C729.941 99.2676 730.979 99.7298 731.48 100.654C731.793 101.24 731.871 101.872 731.715 102.549H730.055C730.107 102.152 730.042 101.79 729.859 101.465C729.553 101.003 728.902 100.771 727.906 100.771C727.242 100.771 726.712 100.898 726.314 101.152C725.924 101.406 725.683 101.742 725.592 102.158C725.494 102.614 725.641 102.979 726.031 103.252C726.259 103.415 726.614 103.558 727.096 103.682L728.199 103.965C729.397 104.271 730.182 104.567 730.553 104.854C731.139 105.303 731.327 106.009 731.119 106.973C730.924 107.904 730.4 108.708 729.547 109.385C728.701 110.062 727.555 110.4 726.109 110.4C724.553 110.4 723.525 110.049 723.023 109.346C722.529 108.636 722.369 107.76 722.545 106.719H724.234ZM734.234 106.719C734.163 107.305 734.215 107.754 734.391 108.066C734.71 108.633 735.416 108.916 736.51 108.916C737.161 108.916 737.763 108.776 738.316 108.496C738.876 108.21 739.218 107.77 739.342 107.178C739.439 106.729 739.312 106.387 738.961 106.152C738.74 106.009 738.274 105.843 737.564 105.654L736.246 105.303C735.4 105.081 734.794 104.834 734.43 104.561C733.772 104.085 733.535 103.428 733.717 102.588C733.925 101.598 734.449 100.798 735.289 100.186C736.135 99.5736 737.161 99.2676 738.365 99.2676C739.941 99.2676 740.979 99.7298 741.48 100.654C741.793 101.24 741.871 101.872 741.715 102.549H740.055C740.107 102.152 740.042 101.79 739.859 101.465C739.553 101.003 738.902 100.771 737.906 100.771C737.242 100.771 736.712 100.898 736.314 101.152C735.924 101.406 735.683 101.742 735.592 102.158C735.494 102.614 735.641 102.979 736.031 103.252C736.259 103.415 736.614 103.558 737.096 103.682L738.199 103.965C739.397 104.271 740.182 104.567 740.553 104.854C741.139 105.303 741.327 106.009 741.119 106.973C740.924 107.904 740.4 108.708 739.547 109.385C738.701 110.062 737.555 110.4 736.109 110.4C734.553 110.4 733.525 110.049 733.023 109.346C732.529 108.636 732.369 107.76 732.545 106.719H734.234ZM741.041 114.082C742.499 112.064 743.476 110.592 743.971 109.668C744.719 108.268 745.296 106.628 745.699 104.746C746.096 102.865 746.197 101.143 746.002 99.5801C745.885 98.6165 745.54 97.2298 744.967 95.4199H746.148C746.812 97.0215 747.21 98.0111 747.34 98.3887C747.47 98.7598 747.59 99.2741 747.701 99.9316C747.838 100.745 747.887 101.549 747.848 102.344C747.815 103.138 747.721 103.903 747.564 104.639C747.154 106.566 746.484 108.285 745.553 109.795C744.96 110.765 743.86 112.194 742.252 114.082H741.041Z" fill="black"/>
<path d="M541 185V204H628V185" stroke="black" stroke-width="5"/>
</svg>
