<svg width="1100" height="300" viewBox="0 0 1100 300" fill="none" xmlns="http://www.w3.org/2000/svg">
<rect width="1100" height="300" fill="white"/>
<path d="M439.719 127.434V129.871C439.719 131.988 439.215 133.664 438.207 134.898C437.418 135.867 436.422 136.352 435.219 136.352C434.641 136.352 434.094 136.234 433.578 136C433.07 135.773 432.637 135.453 432.277 135.039C432.051 134.781 431.801 134.367 431.527 133.797C431.262 133.227 431.07 132.703 430.953 132.227C430.773 131.555 430.684 130.77 430.684 129.871V127.434C430.684 125.309 431.188 123.629 432.195 122.395C432.984 121.426 433.98 120.941 435.184 120.941C435.77 120.941 436.316 121.059 436.824 121.293C437.332 121.52 437.766 121.84 438.125 122.254C438.359 122.52 438.609 122.938 438.875 123.508C439.141 124.078 439.336 124.598 439.461 125.066C439.633 125.738 439.719 126.527 439.719 127.434ZM438.734 127.562C438.734 126.633 438.602 125.77 438.336 124.973C438.078 124.168 437.785 123.527 437.457 123.051C437.262 122.777 437.008 122.543 436.695 122.348C436.25 122.074 435.75 121.938 435.195 121.938C434.094 121.938 433.23 122.5 432.605 123.625C431.98 124.75 431.668 126.062 431.668 127.562V129.73C431.668 130.66 431.797 131.527 432.055 132.332C432.32 133.137 432.621 133.777 432.957 134.254C433.145 134.52 433.395 134.75 433.707 134.945C434.152 135.227 434.656 135.367 435.219 135.367C436.312 135.367 437.172 134.805 437.797 133.68C438.422 132.547 438.734 131.23 438.734 129.73V127.562ZM454.133 127.434V129.871C454.133 131.988 453.629 133.664 452.621 134.898C451.832 135.867 450.836 136.352 449.633 136.352C449.055 136.352 448.508 136.234 447.992 136C447.484 135.773 447.051 135.453 446.691 135.039C446.465 134.781 446.215 134.367 445.941 133.797C445.676 133.227 445.484 132.703 445.367 132.227C445.188 131.555 445.098 130.77 445.098 129.871V127.434C445.098 125.309 445.602 123.629 446.609 122.395C447.398 121.426 448.395 120.941 449.598 120.941C450.184 120.941 450.73 121.059 451.238 121.293C451.746 121.52 452.18 121.84 452.539 122.254C452.773 122.52 453.023 122.938 453.289 123.508C453.555 124.078 453.75 124.598 453.875 125.066C454.047 125.738 454.133 126.527 454.133 127.434ZM453.148 127.562C453.148 126.633 453.016 125.77 452.75 124.973C452.492 124.168 452.199 123.527 451.871 123.051C451.676 122.777 451.422 122.543 451.109 122.348C450.664 122.074 450.164 121.938 449.609 121.938C448.508 121.938 447.645 122.5 447.02 123.625C446.395 124.75 446.082 126.062 446.082 127.562V129.73C446.082 130.66 446.211 131.527 446.469 132.332C446.734 133.137 447.035 133.777 447.371 134.254C447.559 134.52 447.809 134.75 448.121 134.945C448.566 135.227 449.07 135.367 449.633 135.367C450.727 135.367 451.586 134.805 452.211 133.68C452.836 132.547 453.148 131.23 453.148 129.73V127.562ZM468.547 127.434V129.871C468.547 131.988 468.043 133.664 467.035 134.898C466.246 135.867 465.25 136.352 464.047 136.352C463.469 136.352 462.922 136.234 462.406 136C461.898 135.773 461.465 135.453 461.105 135.039C460.879 134.781 460.629 134.367 460.355 133.797C460.09 133.227 459.898 132.703 459.781 132.227C459.602 131.555 459.512 130.77 459.512 129.871V127.434C459.512 125.309 460.016 123.629 461.023 122.395C461.812 121.426 462.809 120.941 464.012 120.941C464.598 120.941 465.145 121.059 465.652 121.293C466.16 121.52 466.594 121.84 466.953 122.254C467.188 122.52 467.438 122.938 467.703 123.508C467.969 124.078 468.164 124.598 468.289 125.066C468.461 125.738 468.547 126.527 468.547 127.434ZM467.562 127.562C467.562 126.633 467.43 125.77 467.164 124.973C466.906 124.168 466.613 123.527 466.285 123.051C466.09 122.777 465.836 122.543 465.523 122.348C465.078 122.074 464.578 121.938 464.023 121.938C462.922 121.938 462.059 122.5 461.434 123.625C460.809 124.75 460.496 126.062 460.496 127.562V129.73C460.496 130.66 460.625 131.527 460.883 132.332C461.148 133.137 461.449 133.777 461.785 134.254C461.973 134.52 462.223 134.75 462.535 134.945C462.98 135.227 463.484 135.367 464.047 135.367C465.141 135.367 466 134.805 466.625 133.68C467.25 132.547 467.562 131.23 467.562 129.73V127.562ZM482.961 127.434V129.871C482.961 131.988 482.457 133.664 481.449 134.898C480.66 135.867 479.664 136.352 478.461 136.352C477.883 136.352 477.336 136.234 476.82 136C476.312 135.773 475.879 135.453 475.52 135.039C475.293 134.781 475.043 134.367 474.77 133.797C474.504 133.227 474.312 132.703 474.195 132.227C474.016 131.555 473.926 130.77 473.926 129.871V127.434C473.926 125.309 474.43 123.629 475.438 122.395C476.227 121.426 477.223 120.941 478.426 120.941C479.012 120.941 479.559 121.059 480.066 121.293C480.574 121.52 481.008 121.84 481.367 122.254C481.602 122.52 481.852 122.938 482.117 123.508C482.383 124.078 482.578 124.598 482.703 125.066C482.875 125.738 482.961 126.527 482.961 127.434ZM481.977 127.562C481.977 126.633 481.844 125.77 481.578 124.973C481.32 124.168 481.027 123.527 480.699 123.051C480.504 122.777 480.25 122.543 479.938 122.348C479.492 122.074 478.992 121.938 478.438 121.938C477.336 121.938 476.473 122.5 475.848 123.625C475.223 124.75 474.91 126.062 474.91 127.562V129.73C474.91 130.66 475.039 131.527 475.297 132.332C475.562 133.137 475.863 133.777 476.199 134.254C476.387 134.52 476.637 134.75 476.949 134.945C477.395 135.227 477.898 135.367 478.461 135.367C479.555 135.367 480.414 134.805 481.039 133.68C481.664 132.547 481.977 131.23 481.977 129.73V127.562ZM498.184 131.16H488.152C488.324 132.434 488.855 133.461 489.746 134.242C490.645 135.016 491.754 135.402 493.074 135.402C493.809 135.402 494.578 135.281 495.383 135.039C496.188 134.797 496.844 134.477 497.352 134.078C497.5 133.961 497.629 133.902 497.738 133.902C497.863 133.902 497.973 133.953 498.066 134.055C498.16 134.148 498.207 134.262 498.207 134.395C498.207 134.527 498.145 134.656 498.02 134.781C497.645 135.172 496.977 135.539 496.016 135.883C495.062 136.219 494.082 136.387 493.074 136.387C491.387 136.387 489.977 135.836 488.844 134.734C487.719 133.625 487.156 132.285 487.156 130.715C487.156 129.285 487.684 128.059 488.738 127.035C489.801 126.012 491.113 125.5 492.676 125.5C494.285 125.5 495.609 126.027 496.648 127.082C497.688 128.129 498.199 129.488 498.184 131.16ZM497.188 130.164C496.992 129.078 496.477 128.195 495.641 127.516C494.812 126.836 493.824 126.496 492.676 126.496C491.527 126.496 490.539 126.832 489.711 127.504C488.883 128.176 488.367 129.062 488.164 130.164H497.188ZM512.598 131.16H502.566C502.738 132.434 503.27 133.461 504.16 134.242C505.059 135.016 506.168 135.402 507.488 135.402C508.223 135.402 508.992 135.281 509.797 135.039C510.602 134.797 511.258 134.477 511.766 134.078C511.914 133.961 512.043 133.902 512.152 133.902C512.277 133.902 512.387 133.953 512.48 134.055C512.574 134.148 512.621 134.262 512.621 134.395C512.621 134.527 512.559 134.656 512.434 134.781C512.059 135.172 511.391 135.539 510.43 135.883C509.477 136.219 508.496 136.387 507.488 136.387C505.801 136.387 504.391 135.836 503.258 134.734C502.133 133.625 501.57 132.285 501.57 130.715C501.57 129.285 502.098 128.059 503.152 127.035C504.215 126.012 505.527 125.5 507.09 125.5C508.699 125.5 510.023 126.027 511.062 127.082C512.102 128.129 512.613 129.488 512.598 131.16ZM511.602 130.164C511.406 129.078 510.891 128.195 510.055 127.516C509.227 126.836 508.238 126.496 507.09 126.496C505.941 126.496 504.953 126.832 504.125 127.504C503.297 128.176 502.781 129.062 502.578 130.164H511.602ZM526.203 127.434V129.871C526.203 131.988 525.699 133.664 524.691 134.898C523.902 135.867 522.906 136.352 521.703 136.352C521.125 136.352 520.578 136.234 520.062 136C519.555 135.773 519.121 135.453 518.762 135.039C518.535 134.781 518.285 134.367 518.012 133.797C517.746 133.227 517.555 132.703 517.438 132.227C517.258 131.555 517.168 130.77 517.168 129.871V127.434C517.168 125.309 517.672 123.629 518.68 122.395C519.469 121.426 520.465 120.941 521.668 120.941C522.254 120.941 522.801 121.059 523.309 121.293C523.816 121.52 524.25 121.84 524.609 122.254C524.844 122.52 525.094 122.938 525.359 123.508C525.625 124.078 525.82 124.598 525.945 125.066C526.117 125.738 526.203 126.527 526.203 127.434ZM525.219 127.562C525.219 126.633 525.086 125.77 524.82 124.973C524.562 124.168 524.27 123.527 523.941 123.051C523.746 122.777 523.492 122.543 523.18 122.348C522.734 122.074 522.234 121.938 521.68 121.938C520.578 121.938 519.715 122.5 519.09 123.625C518.465 124.75 518.152 126.062 518.152 127.562V129.73C518.152 130.66 518.281 131.527 518.539 132.332C518.805 133.137 519.105 133.777 519.441 134.254C519.629 134.52 519.879 134.75 520.191 134.945C520.637 135.227 521.141 135.367 521.703 135.367C522.797 135.367 523.656 134.805 524.281 133.68C524.906 132.547 525.219 131.23 525.219 129.73V127.562ZM533.387 122.289V127.105C533.965 126.863 534.52 126.684 535.051 126.566C535.582 126.441 536.086 126.379 536.562 126.379C537.797 126.379 538.828 126.812 539.656 127.68C540.492 128.547 540.91 129.688 540.91 131.102C540.91 132.664 540.441 133.93 539.504 134.898C538.566 135.867 537.395 136.352 535.988 136.352C535.059 136.352 534.164 136.145 533.305 135.73C532.695 135.441 532.141 135.082 531.641 134.652C531.344 134.395 531.195 134.18 531.195 134.008C531.195 133.867 531.242 133.75 531.336 133.656C531.43 133.555 531.539 133.504 531.664 133.504C531.797 133.504 531.938 133.574 532.086 133.715C533.266 134.816 534.551 135.367 535.941 135.367C537.09 135.367 538.039 134.977 538.789 134.195C539.539 133.406 539.914 132.359 539.914 131.055C539.914 129.945 539.59 129.055 538.941 128.383C538.293 127.703 537.469 127.363 536.469 127.363C535.445 127.363 534.422 127.633 533.398 128.172C533.148 128.297 532.973 128.359 532.871 128.359C532.73 128.359 532.617 128.312 532.531 128.219C532.445 128.125 532.402 127.992 532.402 127.82V121.293H539.27C539.504 121.293 539.672 121.34 539.773 121.434C539.875 121.527 539.926 121.648 539.926 121.797C539.926 121.938 539.875 122.055 539.773 122.148C539.672 122.242 539.504 122.289 539.27 122.289H533.387ZM554.551 127.68C554.043 128.578 553.438 129.254 552.734 129.707C552.039 130.16 551.324 130.387 550.59 130.387C549.91 130.387 549.25 130.191 548.609 129.801C547.977 129.41 547.473 128.84 547.098 128.09C546.723 127.332 546.535 126.539 546.535 125.711C546.535 124.508 546.906 123.414 547.648 122.43C548.398 121.438 549.398 120.941 550.648 120.941C551.539 120.941 552.352 121.219 553.086 121.773C553.82 122.328 554.391 123.133 554.797 124.188C555.32 125.539 555.582 127.109 555.582 128.898C555.582 130.289 555.359 131.445 554.914 132.367C554.617 132.992 554.18 133.598 553.602 134.184C553.031 134.77 552.387 135.246 551.668 135.613C550.684 136.105 549.66 136.352 548.598 136.352C547.895 136.352 547.32 136.219 546.875 135.953C546.672 135.828 546.57 135.672 546.57 135.484C546.57 135.352 546.617 135.242 546.711 135.156C546.805 135.062 546.918 135.016 547.051 135.016C547.145 135.016 547.281 135.059 547.461 135.145C547.766 135.293 548.117 135.367 548.516 135.367C550.18 135.367 551.609 134.77 552.805 133.574C554 132.371 554.598 130.867 554.598 129.062C554.598 128.734 554.582 128.273 554.551 127.68ZM554.363 126.039C553.949 124.453 553.434 123.375 552.816 122.805C552.207 122.227 551.492 121.938 550.672 121.938C549.836 121.938 549.102 122.289 548.469 122.992C547.836 123.695 547.52 124.598 547.52 125.699C547.52 126.77 547.836 127.656 548.469 128.359C549.102 129.055 549.816 129.402 550.613 129.402C551.074 129.402 551.527 129.277 551.973 129.027C552.426 128.777 552.852 128.402 553.25 127.902C553.508 127.566 553.879 126.945 554.363 126.039ZM560.691 135.016H568.25V134.629C568.25 134.395 568.297 134.227 568.391 134.125C568.484 134.023 568.605 133.973 568.754 133.973C568.895 133.973 569.012 134.023 569.105 134.125C569.199 134.227 569.246 134.395 569.246 134.629V136H559.73V134.547C561.73 132.75 563.676 130.922 565.566 129.062C566.449 128.195 567.055 127.559 567.383 127.152C567.711 126.746 567.934 126.391 568.051 126.086C568.176 125.773 568.238 125.461 568.238 125.148C568.238 124.305 567.898 123.559 567.219 122.91C566.539 122.262 565.719 121.938 564.758 121.938C563.898 121.938 563.137 122.184 562.473 122.676C561.809 123.168 561.379 123.777 561.184 124.504C561.137 124.691 561.078 124.812 561.008 124.867C560.914 124.945 560.805 124.984 560.68 124.984C560.547 124.984 560.434 124.941 560.34 124.855C560.254 124.762 560.211 124.652 560.211 124.527C560.211 124.152 560.414 123.645 560.82 123.004C561.234 122.363 561.801 121.859 562.52 121.492C563.246 121.125 563.988 120.941 564.746 120.941C565.973 120.941 567.027 121.367 567.91 122.219C568.793 123.07 569.234 124.035 569.234 125.113C569.234 125.566 569.16 125.984 569.012 126.367C568.863 126.742 568.609 127.156 568.25 127.609C567.898 128.055 567.262 128.73 566.34 129.637C564.027 131.918 562.145 133.688 560.691 134.945V135.016ZM581.363 128.371C582.184 128.77 582.801 129.297 583.215 129.953C583.637 130.602 583.848 131.301 583.848 132.051C583.848 133.215 583.41 134.223 582.535 135.074C581.66 135.926 580.598 136.352 579.348 136.352C578.098 136.352 577.035 135.926 576.16 135.074C575.285 134.223 574.848 133.215 574.848 132.051C574.848 131.309 575.055 130.613 575.469 129.965C575.891 129.309 576.516 128.777 577.344 128.371C576.625 127.957 576.102 127.527 575.773 127.082C575.32 126.449 575.094 125.75 575.094 124.984C575.094 123.906 575.508 122.965 576.336 122.16C577.172 121.348 578.176 120.941 579.348 120.941C580.527 120.941 581.531 121.348 582.359 122.16C583.188 122.965 583.602 123.906 583.602 124.984C583.602 125.75 583.375 126.445 582.922 127.07C582.602 127.523 582.082 127.957 581.363 128.371ZM582.594 125.02C582.594 124.176 582.277 123.453 581.645 122.852C581.02 122.242 580.25 121.938 579.336 121.938C578.43 121.938 577.66 122.242 577.027 122.852C576.402 123.461 576.09 124.18 576.09 125.008C576.09 125.773 576.398 126.445 577.016 127.023C577.641 127.594 578.414 127.879 579.336 127.879C580.266 127.879 581.039 127.594 581.656 127.023C582.281 126.445 582.594 125.777 582.594 125.02ZM582.863 132.074C582.863 131.207 582.527 130.453 581.855 129.812C581.184 129.172 580.348 128.852 579.348 128.852C578.348 128.852 577.512 129.172 576.84 129.812C576.168 130.453 575.832 131.203 575.832 132.062C575.832 132.953 576.168 133.727 576.84 134.383C577.52 135.039 578.355 135.367 579.348 135.367C580.34 135.367 581.172 135.039 581.844 134.383C582.523 133.727 582.863 132.957 582.863 132.074ZM599.082 131.16H589.051C589.223 132.434 589.754 133.461 590.645 134.242C591.543 135.016 592.652 135.402 593.973 135.402C594.707 135.402 595.477 135.281 596.281 135.039C597.086 134.797 597.742 134.477 598.25 134.078C598.398 133.961 598.527 133.902 598.637 133.902C598.762 133.902 598.871 133.953 598.965 134.055C599.059 134.148 599.105 134.262 599.105 134.395C599.105 134.527 599.043 134.656 598.918 134.781C598.543 135.172 597.875 135.539 596.914 135.883C595.961 136.219 594.98 136.387 593.973 136.387C592.285 136.387 590.875 135.836 589.742 134.734C588.617 133.625 588.055 132.285 588.055 130.715C588.055 129.285 588.582 128.059 589.637 127.035C590.699 126.012 592.012 125.5 593.574 125.5C595.184 125.5 596.508 126.027 597.547 127.082C598.586 128.129 599.098 129.488 599.082 131.16ZM598.086 130.164C597.891 129.078 597.375 128.195 596.539 127.516C595.711 126.836 594.723 126.496 593.574 126.496C592.426 126.496 591.438 126.832 590.609 127.504C589.781 128.176 589.266 129.062 589.062 130.164H598.086ZM612.688 127.434V129.871C612.688 131.988 612.184 133.664 611.176 134.898C610.387 135.867 609.391 136.352 608.188 136.352C607.609 136.352 607.062 136.234 606.547 136C606.039 135.773 605.605 135.453 605.246 135.039C605.02 134.781 604.77 134.367 604.496 133.797C604.23 133.227 604.039 132.703 603.922 132.227C603.742 131.555 603.652 130.77 603.652 129.871V127.434C603.652 125.309 604.156 123.629 605.164 122.395C605.953 121.426 606.949 120.941 608.152 120.941C608.738 120.941 609.285 121.059 609.793 121.293C610.301 121.52 610.734 121.84 611.094 122.254C611.328 122.52 611.578 122.938 611.844 123.508C612.109 124.078 612.305 124.598 612.43 125.066C612.602 125.738 612.688 126.527 612.688 127.434ZM611.703 127.562C611.703 126.633 611.57 125.77 611.305 124.973C611.047 124.168 610.754 123.527 610.426 123.051C610.23 122.777 609.977 122.543 609.664 122.348C609.219 122.074 608.719 121.938 608.164 121.938C607.062 121.938 606.199 122.5 605.574 123.625C604.949 124.75 604.637 126.062 604.637 127.562V129.73C604.637 130.66 604.766 131.527 605.023 132.332C605.289 133.137 605.59 133.777 605.926 134.254C606.113 134.52 606.363 134.75 606.676 134.945C607.121 135.227 607.625 135.367 608.188 135.367C609.281 135.367 610.141 134.805 610.766 133.68C611.391 132.547 611.703 131.23 611.703 129.73V127.562ZM623.07 121.094V135.016H626.445C626.68 135.016 626.848 135.062 626.949 135.156C627.051 135.242 627.102 135.359 627.102 135.508C627.102 135.648 627.051 135.766 626.949 135.859C626.848 135.953 626.68 136 626.445 136H618.711C618.477 136 618.309 135.953 618.207 135.859C618.105 135.766 618.055 135.648 618.055 135.508C618.055 135.359 618.105 135.242 618.207 135.156C618.309 135.062 618.477 135.016 618.711 135.016H622.086V122.453L618.875 123.461C618.719 123.508 618.605 123.531 618.535 123.531C618.418 123.531 618.309 123.484 618.207 123.391C618.113 123.289 618.066 123.172 618.066 123.039C618.066 122.922 618.105 122.812 618.184 122.711C618.246 122.648 618.375 122.582 618.57 122.512L623.07 121.094ZM639.02 128.371C639.84 128.77 640.457 129.297 640.871 129.953C641.293 130.602 641.504 131.301 641.504 132.051C641.504 133.215 641.066 134.223 640.191 135.074C639.316 135.926 638.254 136.352 637.004 136.352C635.754 136.352 634.691 135.926 633.816 135.074C632.941 134.223 632.504 133.215 632.504 132.051C632.504 131.309 632.711 130.613 633.125 129.965C633.547 129.309 634.172 128.777 635 128.371C634.281 127.957 633.758 127.527 633.43 127.082C632.977 126.449 632.75 125.75 632.75 124.984C632.75 123.906 633.164 122.965 633.992 122.16C634.828 121.348 635.832 120.941 637.004 120.941C638.184 120.941 639.188 121.348 640.016 122.16C640.844 122.965 641.258 123.906 641.258 124.984C641.258 125.75 641.031 126.445 640.578 127.07C640.258 127.523 639.738 127.957 639.02 128.371ZM640.25 125.02C640.25 124.176 639.934 123.453 639.301 122.852C638.676 122.242 637.906 121.938 636.992 121.938C636.086 121.938 635.316 122.242 634.684 122.852C634.059 123.461 633.746 124.18 633.746 125.008C633.746 125.773 634.055 126.445 634.672 127.023C635.297 127.594 636.07 127.879 636.992 127.879C637.922 127.879 638.695 127.594 639.312 127.023C639.938 126.445 640.25 125.777 640.25 125.02ZM640.52 132.074C640.52 131.207 640.184 130.453 639.512 129.812C638.84 129.172 638.004 128.852 637.004 128.852C636.004 128.852 635.168 129.172 634.496 129.812C633.824 130.453 633.488 131.203 633.488 132.062C633.488 132.953 633.824 133.727 634.496 134.383C635.176 135.039 636.012 135.367 637.004 135.367C637.996 135.367 638.828 135.039 639.5 134.383C640.18 133.727 640.52 132.957 640.52 132.074ZM648.477 129.777C649.086 128.879 649.711 128.215 650.352 127.785C651 127.355 651.719 127.141 652.508 127.141C653.555 127.141 654.484 127.578 655.297 128.453C656.109 129.32 656.516 130.395 656.516 131.676C656.516 132.848 656.145 133.922 655.402 134.898C654.66 135.867 653.637 136.352 652.332 136.352C651.48 136.352 650.684 136.09 649.941 135.566C649.207 135.043 648.629 134.238 648.207 133.152C647.684 131.801 647.422 130.305 647.422 128.664C647.422 127.43 647.668 126.281 648.16 125.219C648.535 124.398 649.035 123.68 649.66 123.062C650.285 122.438 651.012 121.93 651.84 121.539C652.676 121.141 653.578 120.941 654.547 120.941C655.203 120.941 655.75 121.074 656.188 121.34C656.375 121.457 656.469 121.613 656.469 121.809C656.469 121.949 656.426 122.066 656.34 122.16C656.254 122.246 656.145 122.289 656.012 122.289C655.91 122.289 655.789 122.25 655.648 122.172C655.328 122.016 654.93 121.938 654.453 121.938C652.93 121.938 651.539 122.594 650.281 123.906C649.031 125.211 648.406 126.766 648.406 128.57C648.406 128.828 648.43 129.23 648.477 129.777ZM648.699 131.406C648.996 132.828 649.461 133.844 650.094 134.453C650.734 135.062 651.488 135.367 652.355 135.367C653.23 135.367 653.977 135.027 654.594 134.348C655.219 133.66 655.531 132.77 655.531 131.676C655.531 130.652 655.219 129.805 654.594 129.133C653.969 128.461 653.262 128.125 652.473 128.125C651.715 128.125 650.984 128.449 650.281 129.098C649.812 129.527 649.285 130.297 648.699 131.406ZM668.656 136V134.582C667.227 135.785 665.699 136.387 664.074 136.387C662.895 136.387 661.973 136.09 661.309 135.496C660.645 134.895 660.312 134.16 660.312 133.293C660.312 132.34 660.75 131.508 661.625 130.797C662.5 130.086 663.777 129.73 665.457 129.73C665.91 129.73 666.402 129.762 666.934 129.824C667.465 129.879 668.039 129.969 668.656 130.094V128.5C668.656 127.961 668.406 127.492 667.906 127.094C667.406 126.695 666.656 126.496 665.656 126.496C664.891 126.496 663.816 126.719 662.434 127.164C662.184 127.242 662.023 127.281 661.953 127.281C661.828 127.281 661.719 127.234 661.625 127.141C661.539 127.047 661.496 126.93 661.496 126.789C661.496 126.656 661.535 126.551 661.613 126.473C661.723 126.355 662.164 126.195 662.938 125.992C664.156 125.664 665.078 125.5 665.703 125.5C666.945 125.5 667.914 125.809 668.609 126.426C669.305 127.035 669.652 127.727 669.652 128.5V135.016H670.965C671.207 135.016 671.379 135.062 671.48 135.156C671.582 135.242 671.633 135.359 671.633 135.508C671.633 135.648 671.582 135.766 671.48 135.859C671.379 135.953 671.207 136 670.965 136H668.656ZM668.656 131.102C668.195 130.969 667.707 130.871 667.191 130.809C666.676 130.746 666.133 130.715 665.562 130.715C664.133 130.715 663.016 131.023 662.211 131.641C661.602 132.102 661.297 132.652 661.297 133.293C661.297 133.887 661.527 134.387 661.988 134.793C662.457 135.199 663.137 135.402 664.027 135.402C664.879 135.402 665.668 135.234 666.395 134.898C667.129 134.555 667.883 134.012 668.656 133.27V131.102ZM684.758 127.434V129.871C684.758 131.988 684.254 133.664 683.246 134.898C682.457 135.867 681.461 136.352 680.258 136.352C679.68 136.352 679.133 136.234 678.617 136C678.109 135.773 677.676 135.453 677.316 135.039C677.09 134.781 676.84 134.367 676.566 133.797C676.301 133.227 676.109 132.703 675.992 132.227C675.812 131.555 675.723 130.77 675.723 129.871V127.434C675.723 125.309 676.227 123.629 677.234 122.395C678.023 121.426 679.02 120.941 680.223 120.941C680.809 120.941 681.355 121.059 681.863 121.293C682.371 121.52 682.805 121.84 683.164 122.254C683.398 122.52 683.648 122.938 683.914 123.508C684.18 124.078 684.375 124.598 684.5 125.066C684.672 125.738 684.758 126.527 684.758 127.434ZM683.773 127.562C683.773 126.633 683.641 125.77 683.375 124.973C683.117 124.168 682.824 123.527 682.496 123.051C682.301 122.777 682.047 122.543 681.734 122.348C681.289 122.074 680.789 121.938 680.234 121.938C679.133 121.938 678.27 122.5 677.645 123.625C677.02 124.75 676.707 126.062 676.707 127.562V129.73C676.707 130.66 676.836 131.527 677.094 132.332C677.359 133.137 677.66 133.777 677.996 134.254C678.184 134.52 678.434 134.75 678.746 134.945C679.191 135.227 679.695 135.367 680.258 135.367C681.352 135.367 682.211 134.805 682.836 133.68C683.461 132.547 683.773 131.23 683.773 129.73V127.562Z" fill="black"/>
<path d="M516 145V164H600V145" stroke="black" stroke-width="5"/>
<path d="M432 145V164H516V145" stroke="black" stroke-width="5"/>
<path d="M455.816 174.785V176.836H450.016V192H447.648V176.836H441.848V174.785H455.816ZM459.988 190.641C461.387 190.641 462.344 190.113 462.859 189.059C463.383 187.996 463.645 186.816 463.645 185.52C463.645 184.348 463.457 183.395 463.082 182.66C462.488 181.504 461.465 180.926 460.012 180.926C458.723 180.926 457.785 181.418 457.199 182.402C456.613 183.387 456.32 184.574 456.32 185.965C456.32 187.301 456.613 188.414 457.199 189.305C457.785 190.195 458.715 190.641 459.988 190.641ZM460.07 179.086C461.688 179.086 463.055 179.625 464.172 180.703C465.289 181.781 465.848 183.367 465.848 185.461C465.848 187.484 465.355 189.156 464.371 190.477C463.387 191.797 461.859 192.457 459.789 192.457C458.062 192.457 456.691 191.875 455.676 190.711C454.66 189.539 454.152 187.969 454.152 186C454.152 183.891 454.688 182.211 455.758 180.961C456.828 179.711 458.266 179.086 460.07 179.086ZM468.32 174.785H470.348V184.781L475.762 179.449H478.457L473.652 184.148L478.727 192H476.031L472.117 185.672L470.348 187.289V192H468.32V174.785ZM485.594 179.168C486.484 179.168 487.348 179.379 488.184 179.801C489.02 180.215 489.656 180.754 490.094 181.418C490.516 182.051 490.797 182.789 490.938 183.633C491.062 184.211 491.125 185.133 491.125 186.398H481.926C481.965 187.672 482.266 188.695 482.828 189.469C483.391 190.234 484.262 190.617 485.441 190.617C486.543 190.617 487.422 190.254 488.078 189.527C488.453 189.105 488.719 188.617 488.875 188.062H490.949C490.895 188.523 490.711 189.039 490.398 189.609C490.094 190.172 489.75 190.633 489.367 190.992C488.727 191.617 487.934 192.039 486.988 192.258C486.48 192.383 485.906 192.445 485.266 192.445C483.703 192.445 482.379 191.879 481.293 190.746C480.207 189.605 479.664 188.012 479.664 185.965C479.664 183.949 480.211 182.312 481.305 181.055C482.398 179.797 483.828 179.168 485.594 179.168ZM488.957 184.723C488.871 183.809 488.672 183.078 488.359 182.531C487.781 181.516 486.816 181.008 485.465 181.008C484.496 181.008 483.684 181.359 483.027 182.062C482.371 182.758 482.023 183.645 481.984 184.723H488.957ZM493.727 179.449H495.73V181.23C496.324 180.496 496.953 179.969 497.617 179.648C498.281 179.328 499.02 179.168 499.832 179.168C501.613 179.168 502.816 179.789 503.441 181.031C503.785 181.711 503.957 182.684 503.957 183.949V192H501.812V184.09C501.812 183.324 501.699 182.707 501.473 182.238C501.098 181.457 500.418 181.066 499.434 181.066C498.934 181.066 498.523 181.117 498.203 181.219C497.625 181.391 497.117 181.734 496.68 182.25C496.328 182.664 496.098 183.094 495.988 183.539C495.887 183.977 495.836 184.605 495.836 185.426V192H493.727V179.449ZM424.445 208.945L421.832 201.34L419.055 208.945H424.445ZM420.613 198.785H423.25L429.496 216H426.941L425.195 210.844H418.387L416.523 216H414.133L420.613 198.785ZM432.672 209.871C432.672 211.215 432.957 212.34 433.527 213.246C434.098 214.152 435.012 214.605 436.27 214.605C437.246 214.605 438.047 214.188 438.672 213.352C439.305 212.508 439.621 211.301 439.621 209.73C439.621 208.145 439.297 206.973 438.648 206.215C438 205.449 437.199 205.066 436.246 205.066C435.184 205.066 434.32 205.473 433.656 206.285C433 207.098 432.672 208.293 432.672 209.871ZM435.848 203.227C436.809 203.227 437.613 203.43 438.262 203.836C438.637 204.07 439.062 204.48 439.539 205.066V198.727H441.566V216H439.668V214.254C439.176 215.027 438.594 215.586 437.922 215.93C437.25 216.273 436.48 216.445 435.613 216.445C434.215 216.445 433.004 215.859 431.98 214.688C430.957 213.508 430.445 211.941 430.445 209.988C430.445 208.16 430.91 206.578 431.84 205.242C432.777 203.898 434.113 203.227 435.848 203.227ZM446.031 209.871C446.031 211.215 446.316 212.34 446.887 213.246C447.457 214.152 448.371 214.605 449.629 214.605C450.605 214.605 451.406 214.188 452.031 213.352C452.664 212.508 452.98 211.301 452.98 209.73C452.98 208.145 452.656 206.973 452.008 206.215C451.359 205.449 450.559 205.066 449.605 205.066C448.543 205.066 447.68 205.473 447.016 206.285C446.359 207.098 446.031 208.293 446.031 209.871ZM449.207 203.227C450.168 203.227 450.973 203.43 451.621 203.836C451.996 204.07 452.422 204.48 452.898 205.066V198.727H454.926V216H453.027V214.254C452.535 215.027 451.953 215.586 451.281 215.93C450.609 216.273 449.84 216.445 448.973 216.445C447.574 216.445 446.363 215.859 445.34 214.688C444.316 213.508 443.805 211.941 443.805 209.988C443.805 208.16 444.27 206.578 445.199 205.242C446.137 203.898 447.473 203.227 449.207 203.227ZM458.113 203.449H460.117V205.617C460.281 205.195 460.684 204.684 461.324 204.082C461.965 203.473 462.703 203.168 463.539 203.168C463.578 203.168 463.645 203.172 463.738 203.18C463.832 203.188 463.992 203.203 464.219 203.227V205.453C464.094 205.43 463.977 205.414 463.867 205.406C463.766 205.398 463.652 205.395 463.527 205.395C462.465 205.395 461.648 205.738 461.078 206.426C460.508 207.105 460.223 207.891 460.223 208.781V216H458.113V203.449ZM471.273 203.168C472.164 203.168 473.027 203.379 473.863 203.801C474.699 204.215 475.336 204.754 475.773 205.418C476.195 206.051 476.477 206.789 476.617 207.633C476.742 208.211 476.805 209.133 476.805 210.398H467.605C467.645 211.672 467.945 212.695 468.508 213.469C469.07 214.234 469.941 214.617 471.121 214.617C472.223 214.617 473.102 214.254 473.758 213.527C474.133 213.105 474.398 212.617 474.555 212.062H476.629C476.574 212.523 476.391 213.039 476.078 213.609C475.773 214.172 475.43 214.633 475.047 214.992C474.406 215.617 473.613 216.039 472.668 216.258C472.16 216.383 471.586 216.445 470.945 216.445C469.383 216.445 468.059 215.879 466.973 214.746C465.887 213.605 465.344 212.012 465.344 209.965C465.344 207.949 465.891 206.312 466.984 205.055C468.078 203.797 469.508 203.168 471.273 203.168ZM474.637 208.723C474.551 207.809 474.352 207.078 474.039 206.531C473.461 205.516 472.496 205.008 471.145 205.008C470.176 205.008 469.363 205.359 468.707 206.062C468.051 206.758 467.703 207.645 467.664 208.723H474.637ZM480.66 212.062C480.723 212.766 480.898 213.305 481.188 213.68C481.719 214.359 482.641 214.699 483.953 214.699C484.734 214.699 485.422 214.531 486.016 214.195C486.609 213.852 486.906 213.324 486.906 212.613C486.906 212.074 486.668 211.664 486.191 211.383C485.887 211.211 485.285 211.012 484.387 210.785L482.711 210.363C481.641 210.098 480.852 209.801 480.344 209.473C479.438 208.902 478.984 208.113 478.984 207.105C478.984 205.918 479.41 204.957 480.262 204.223C481.121 203.488 482.273 203.121 483.719 203.121C485.609 203.121 486.973 203.676 487.809 204.785C488.332 205.488 488.586 206.246 488.57 207.059H486.578C486.539 206.582 486.371 206.148 486.074 205.758C485.59 205.203 484.75 204.926 483.555 204.926C482.758 204.926 482.152 205.078 481.738 205.383C481.332 205.688 481.129 206.09 481.129 206.59C481.129 207.137 481.398 207.574 481.938 207.902C482.25 208.098 482.711 208.27 483.32 208.418L484.715 208.758C486.23 209.125 487.246 209.48 487.762 209.824C488.582 210.363 488.992 211.211 488.992 212.367C488.992 213.484 488.566 214.449 487.715 215.262C486.871 216.074 485.582 216.48 483.848 216.48C481.98 216.48 480.656 216.059 479.875 215.215C479.102 214.363 478.688 213.312 478.633 212.062H480.66ZM492.66 212.062C492.723 212.766 492.898 213.305 493.188 213.68C493.719 214.359 494.641 214.699 495.953 214.699C496.734 214.699 497.422 214.531 498.016 214.195C498.609 213.852 498.906 213.324 498.906 212.613C498.906 212.074 498.668 211.664 498.191 211.383C497.887 211.211 497.285 211.012 496.387 210.785L494.711 210.363C493.641 210.098 492.852 209.801 492.344 209.473C491.438 208.902 490.984 208.113 490.984 207.105C490.984 205.918 491.41 204.957 492.262 204.223C493.121 203.488 494.273 203.121 495.719 203.121C497.609 203.121 498.973 203.676 499.809 204.785C500.332 205.488 500.586 206.246 500.57 207.059H498.578C498.539 206.582 498.371 206.148 498.074 205.758C497.59 205.203 496.75 204.926 495.555 204.926C494.758 204.926 494.152 205.078 493.738 205.383C493.332 205.688 493.129 206.09 493.129 206.59C493.129 207.137 493.398 207.574 493.938 207.902C494.25 208.098 494.711 208.27 495.32 208.418L496.715 208.758C498.23 209.125 499.246 209.48 499.762 209.824C500.582 210.363 500.992 211.211 500.992 212.367C500.992 213.484 500.566 214.449 499.715 215.262C498.871 216.074 497.582 216.48 495.848 216.48C493.98 216.48 492.656 216.059 491.875 215.215C491.102 214.363 490.688 213.312 490.633 212.062H492.66ZM510.895 198.785H513.25V216H510.895V198.785ZM523.656 214.008C524.445 214.008 525.094 213.926 525.602 213.762C526.508 213.457 527.25 212.871 527.828 212.004C528.289 211.309 528.621 210.418 528.824 209.332C528.941 208.684 529 208.082 529 207.527C529 205.395 528.574 203.738 527.723 202.559C526.879 201.379 525.516 200.789 523.633 200.789H519.496V214.008H523.656ZM517.152 198.785H524.125C526.492 198.785 528.328 199.625 529.633 201.305C530.797 202.82 531.379 204.762 531.379 207.129C531.379 208.957 531.035 210.609 530.348 212.086C529.137 214.695 527.055 216 524.102 216H517.152V198.785Z" fill="black"/>
<path d="M517.258 235.672C518.352 235.672 519.215 235.453 519.848 235.016C520.488 234.578 520.809 233.789 520.809 232.648C520.809 231.422 520.363 230.586 519.473 230.141C518.996 229.906 518.359 229.789 517.562 229.789H511.867V235.672H517.258ZM509.535 227.785H517.504C518.816 227.785 519.898 227.977 520.75 228.359C522.367 229.094 523.176 230.449 523.176 232.426C523.176 233.457 522.961 234.301 522.531 234.957C522.109 235.613 521.516 236.141 520.75 236.539C521.422 236.812 521.926 237.172 522.262 237.617C522.605 238.062 522.797 238.785 522.836 239.785L522.918 242.094C522.941 242.75 522.996 243.238 523.082 243.559C523.223 244.105 523.473 244.457 523.832 244.613V245H520.973C520.895 244.852 520.832 244.66 520.785 244.426C520.738 244.191 520.699 243.738 520.668 243.066L520.527 240.195C520.473 239.07 520.055 238.316 519.273 237.934C518.828 237.723 518.129 237.617 517.176 237.617H511.867V245H509.535V227.785ZM531.543 232.168C532.434 232.168 533.297 232.379 534.133 232.801C534.969 233.215 535.605 233.754 536.043 234.418C536.465 235.051 536.746 235.789 536.887 236.633C537.012 237.211 537.074 238.133 537.074 239.398H527.875C527.914 240.672 528.215 241.695 528.777 242.469C529.34 243.234 530.211 243.617 531.391 243.617C532.492 243.617 533.371 243.254 534.027 242.527C534.402 242.105 534.668 241.617 534.824 241.062H536.898C536.844 241.523 536.66 242.039 536.348 242.609C536.043 243.172 535.699 243.633 535.316 243.992C534.676 244.617 533.883 245.039 532.938 245.258C532.43 245.383 531.855 245.445 531.215 245.445C529.652 245.445 528.328 244.879 527.242 243.746C526.156 242.605 525.613 241.012 525.613 238.965C525.613 236.949 526.16 235.312 527.254 234.055C528.348 232.797 529.777 232.168 531.543 232.168ZM534.906 237.723C534.82 236.809 534.621 236.078 534.309 235.531C533.73 234.516 532.766 234.008 531.414 234.008C530.445 234.008 529.633 234.359 528.977 235.062C528.32 235.758 527.973 236.645 527.934 237.723H534.906ZM544.516 232.086C545.93 232.086 547.078 232.43 547.961 233.117C548.852 233.805 549.387 234.988 549.566 236.668H547.516C547.391 235.895 547.105 235.254 546.66 234.746C546.215 234.23 545.5 233.973 544.516 233.973C543.172 233.973 542.211 234.629 541.633 235.941C541.258 236.793 541.07 237.844 541.07 239.094C541.07 240.352 541.336 241.41 541.867 242.27C542.398 243.129 543.234 243.559 544.375 243.559C545.25 243.559 545.941 243.293 546.449 242.762C546.965 242.223 547.32 241.488 547.516 240.559H549.566C549.332 242.223 548.746 243.441 547.809 244.215C546.871 244.98 545.672 245.363 544.211 245.363C542.57 245.363 541.262 244.766 540.285 243.57C539.309 242.367 538.82 240.867 538.82 239.07C538.82 236.867 539.355 235.152 540.426 233.926C541.496 232.699 542.859 232.086 544.516 232.086ZM551.676 232.508H553.82V245H551.676V232.508ZM551.676 227.785H553.82V230.176H551.676V227.785ZM562.316 243.582C563.301 243.582 564.117 243.172 564.766 242.352C565.422 241.523 565.75 240.289 565.75 238.648C565.75 237.648 565.605 236.789 565.316 236.07C564.77 234.688 563.77 233.996 562.316 233.996C560.855 233.996 559.855 234.727 559.316 236.188C559.027 236.969 558.883 237.961 558.883 239.164C558.883 240.133 559.027 240.957 559.316 241.637C559.863 242.934 560.863 243.582 562.316 243.582ZM556.855 232.508H558.906V234.172C559.328 233.602 559.789 233.16 560.289 232.848C561 232.379 561.836 232.145 562.797 232.145C564.219 232.145 565.426 232.691 566.418 233.785C567.41 234.871 567.906 236.426 567.906 238.449C567.906 241.184 567.191 243.137 565.762 244.309C564.855 245.051 563.801 245.422 562.598 245.422C561.652 245.422 560.859 245.215 560.219 244.801C559.844 244.566 559.426 244.164 558.965 243.594V250.004H556.855V232.508ZM570.379 232.508H572.523V245H570.379V232.508ZM570.379 227.785H572.523V230.176H570.379V227.785ZM580.949 232.168C581.84 232.168 582.703 232.379 583.539 232.801C584.375 233.215 585.012 233.754 585.449 234.418C585.871 235.051 586.152 235.789 586.293 236.633C586.418 237.211 586.48 238.133 586.48 239.398H577.281C577.32 240.672 577.621 241.695 578.184 242.469C578.746 243.234 579.617 243.617 580.797 243.617C581.898 243.617 582.777 243.254 583.434 242.527C583.809 242.105 584.074 241.617 584.23 241.062H586.305C586.25 241.523 586.066 242.039 585.754 242.609C585.449 243.172 585.105 243.633 584.723 243.992C584.082 244.617 583.289 245.039 582.344 245.258C581.836 245.383 581.262 245.445 580.621 245.445C579.059 245.445 577.734 244.879 576.648 243.746C575.562 242.605 575.02 241.012 575.02 238.965C575.02 236.949 575.566 235.312 576.66 234.055C577.754 232.797 579.184 232.168 580.949 232.168ZM584.312 237.723C584.227 236.809 584.027 236.078 583.715 235.531C583.137 234.516 582.172 234.008 580.82 234.008C579.852 234.008 579.039 234.359 578.383 235.062C577.727 235.758 577.379 236.645 577.34 237.723H584.312ZM589.082 232.449H591.086V234.23C591.68 233.496 592.309 232.969 592.973 232.648C593.637 232.328 594.375 232.168 595.188 232.168C596.969 232.168 598.172 232.789 598.797 234.031C599.141 234.711 599.312 235.684 599.312 236.949V245H597.168V237.09C597.168 236.324 597.055 235.707 596.828 235.238C596.453 234.457 595.773 234.066 594.789 234.066C594.289 234.066 593.879 234.117 593.559 234.219C592.98 234.391 592.473 234.734 592.035 235.25C591.684 235.664 591.453 236.094 591.344 236.539C591.242 236.977 591.191 237.605 591.191 238.426V245H589.082V232.449ZM602.863 228.945H604.996V232.449H607V234.172H604.996V242.363C604.996 242.801 605.145 243.094 605.441 243.242C605.605 243.328 605.879 243.371 606.262 243.371C606.363 243.371 606.473 243.371 606.59 243.371C606.707 243.363 606.844 243.352 607 243.336V245C606.758 245.07 606.504 245.121 606.238 245.152C605.98 245.184 605.699 245.199 605.395 245.199C604.41 245.199 603.742 244.949 603.391 244.449C603.039 243.941 602.863 243.285 602.863 242.48V234.172H601.164V232.449H602.863V228.945ZM508.445 261.945L505.832 254.34L503.055 261.945H508.445ZM504.613 251.785H507.25L513.496 269H510.941L509.195 263.844H502.387L500.523 269H498.133L504.613 251.785ZM516.672 262.871C516.672 264.215 516.957 265.34 517.527 266.246C518.098 267.152 519.012 267.605 520.27 267.605C521.246 267.605 522.047 267.188 522.672 266.352C523.305 265.508 523.621 264.301 523.621 262.73C523.621 261.145 523.297 259.973 522.648 259.215C522 258.449 521.199 258.066 520.246 258.066C519.184 258.066 518.32 258.473 517.656 259.285C517 260.098 516.672 261.293 516.672 262.871ZM519.848 256.227C520.809 256.227 521.613 256.43 522.262 256.836C522.637 257.07 523.062 257.48 523.539 258.066V251.727H525.566V269H523.668V267.254C523.176 268.027 522.594 268.586 521.922 268.93C521.25 269.273 520.48 269.445 519.613 269.445C518.215 269.445 517.004 268.859 515.98 267.688C514.957 266.508 514.445 264.941 514.445 262.988C514.445 261.16 514.91 259.578 515.84 258.242C516.777 256.898 518.113 256.227 519.848 256.227ZM530.031 262.871C530.031 264.215 530.316 265.34 530.887 266.246C531.457 267.152 532.371 267.605 533.629 267.605C534.605 267.605 535.406 267.188 536.031 266.352C536.664 265.508 536.98 264.301 536.98 262.73C536.98 261.145 536.656 259.973 536.008 259.215C535.359 258.449 534.559 258.066 533.605 258.066C532.543 258.066 531.68 258.473 531.016 259.285C530.359 260.098 530.031 261.293 530.031 262.871ZM533.207 256.227C534.168 256.227 534.973 256.43 535.621 256.836C535.996 257.07 536.422 257.48 536.898 258.066V251.727H538.926V269H537.027V267.254C536.535 268.027 535.953 268.586 535.281 268.93C534.609 269.273 533.84 269.445 532.973 269.445C531.574 269.445 530.363 268.859 529.34 267.688C528.316 266.508 527.805 264.941 527.805 262.988C527.805 261.16 528.27 259.578 529.199 258.242C530.137 256.898 531.473 256.227 533.207 256.227ZM542.113 256.449H544.117V258.617C544.281 258.195 544.684 257.684 545.324 257.082C545.965 256.473 546.703 256.168 547.539 256.168C547.578 256.168 547.645 256.172 547.738 256.18C547.832 256.188 547.992 256.203 548.219 256.227V258.453C548.094 258.43 547.977 258.414 547.867 258.406C547.766 258.398 547.652 258.395 547.527 258.395C546.465 258.395 545.648 258.738 545.078 259.426C544.508 260.105 544.223 260.891 544.223 261.781V269H542.113V256.449ZM555.273 256.168C556.164 256.168 557.027 256.379 557.863 256.801C558.699 257.215 559.336 257.754 559.773 258.418C560.195 259.051 560.477 259.789 560.617 260.633C560.742 261.211 560.805 262.133 560.805 263.398H551.605C551.645 264.672 551.945 265.695 552.508 266.469C553.07 267.234 553.941 267.617 555.121 267.617C556.223 267.617 557.102 267.254 557.758 266.527C558.133 266.105 558.398 265.617 558.555 265.062H560.629C560.574 265.523 560.391 266.039 560.078 266.609C559.773 267.172 559.43 267.633 559.047 267.992C558.406 268.617 557.613 269.039 556.668 269.258C556.16 269.383 555.586 269.445 554.945 269.445C553.383 269.445 552.059 268.879 550.973 267.746C549.887 266.605 549.344 265.012 549.344 262.965C549.344 260.949 549.891 259.312 550.984 258.055C552.078 256.797 553.508 256.168 555.273 256.168ZM558.637 261.723C558.551 260.809 558.352 260.078 558.039 259.531C557.461 258.516 556.496 258.008 555.145 258.008C554.176 258.008 553.363 258.359 552.707 259.062C552.051 259.758 551.703 260.645 551.664 261.723H558.637ZM564.66 265.062C564.723 265.766 564.898 266.305 565.188 266.68C565.719 267.359 566.641 267.699 567.953 267.699C568.734 267.699 569.422 267.531 570.016 267.195C570.609 266.852 570.906 266.324 570.906 265.613C570.906 265.074 570.668 264.664 570.191 264.383C569.887 264.211 569.285 264.012 568.387 263.785L566.711 263.363C565.641 263.098 564.852 262.801 564.344 262.473C563.438 261.902 562.984 261.113 562.984 260.105C562.984 258.918 563.41 257.957 564.262 257.223C565.121 256.488 566.273 256.121 567.719 256.121C569.609 256.121 570.973 256.676 571.809 257.785C572.332 258.488 572.586 259.246 572.57 260.059H570.578C570.539 259.582 570.371 259.148 570.074 258.758C569.59 258.203 568.75 257.926 567.555 257.926C566.758 257.926 566.152 258.078 565.738 258.383C565.332 258.688 565.129 259.09 565.129 259.59C565.129 260.137 565.398 260.574 565.938 260.902C566.25 261.098 566.711 261.27 567.32 261.418L568.715 261.758C570.23 262.125 571.246 262.48 571.762 262.824C572.582 263.363 572.992 264.211 572.992 265.367C572.992 266.484 572.566 267.449 571.715 268.262C570.871 269.074 569.582 269.48 567.848 269.48C565.98 269.48 564.656 269.059 563.875 268.215C563.102 267.363 562.688 266.312 562.633 265.062H564.66ZM576.66 265.062C576.723 265.766 576.898 266.305 577.188 266.68C577.719 267.359 578.641 267.699 579.953 267.699C580.734 267.699 581.422 267.531 582.016 267.195C582.609 266.852 582.906 266.324 582.906 265.613C582.906 265.074 582.668 264.664 582.191 264.383C581.887 264.211 581.285 264.012 580.387 263.785L578.711 263.363C577.641 263.098 576.852 262.801 576.344 262.473C575.438 261.902 574.984 261.113 574.984 260.105C574.984 258.918 575.41 257.957 576.262 257.223C577.121 256.488 578.273 256.121 579.719 256.121C581.609 256.121 582.973 256.676 583.809 257.785C584.332 258.488 584.586 259.246 584.57 260.059H582.578C582.539 259.582 582.371 259.148 582.074 258.758C581.59 258.203 580.75 257.926 579.555 257.926C578.758 257.926 578.152 258.078 577.738 258.383C577.332 258.688 577.129 259.09 577.129 259.59C577.129 260.137 577.398 260.574 577.938 260.902C578.25 261.098 578.711 261.27 579.32 261.418L580.715 261.758C582.23 262.125 583.246 262.48 583.762 262.824C584.582 263.363 584.992 264.211 584.992 265.367C584.992 266.484 584.566 267.449 583.715 268.262C582.871 269.074 581.582 269.48 579.848 269.48C577.98 269.48 576.656 269.059 575.875 268.215C575.102 267.363 574.688 266.312 574.633 265.062H576.66ZM594.895 251.785H597.25V269H594.895V251.785ZM607.656 267.008C608.445 267.008 609.094 266.926 609.602 266.762C610.508 266.457 611.25 265.871 611.828 265.004C612.289 264.309 612.621 263.418 612.824 262.332C612.941 261.684 613 261.082 613 260.527C613 258.395 612.574 256.738 611.723 255.559C610.879 254.379 609.516 253.789 607.633 253.789H603.496V267.008H607.656ZM601.152 251.785H608.125C610.492 251.785 612.328 252.625 613.633 254.305C614.797 255.82 615.379 257.762 615.379 260.129C615.379 261.957 615.035 263.609 614.348 265.086C613.137 267.695 611.055 269 608.102 269H601.152V251.785Z" fill="black"/>
<path d="M613.285 180.945L610.672 173.34L607.895 180.945H613.285ZM609.453 170.785H612.09L618.336 188H615.781L614.035 182.844H607.227L605.363 188H602.973L609.453 170.785ZM620.176 175.449H622.262V177.23C622.762 176.613 623.215 176.164 623.621 175.883C624.316 175.406 625.105 175.168 625.988 175.168C626.988 175.168 627.793 175.414 628.402 175.906C628.746 176.188 629.059 176.602 629.34 177.148C629.809 176.477 630.359 175.98 630.992 175.66C631.625 175.332 632.336 175.168 633.125 175.168C634.812 175.168 635.961 175.777 636.57 176.996C636.898 177.652 637.062 178.535 637.062 179.645V188H634.871V179.281C634.871 178.445 634.66 177.871 634.238 177.559C633.824 177.246 633.316 177.09 632.715 177.09C631.887 177.09 631.172 177.367 630.57 177.922C629.977 178.477 629.68 179.402 629.68 180.699V188H627.535V179.809C627.535 178.957 627.434 178.336 627.23 177.945C626.91 177.359 626.312 177.066 625.438 177.066C624.641 177.066 623.914 177.375 623.258 177.992C622.609 178.609 622.285 179.727 622.285 181.344V188H620.176V175.449ZM645.148 186.641C646.547 186.641 647.504 186.113 648.02 185.059C648.543 183.996 648.805 182.816 648.805 181.52C648.805 180.348 648.617 179.395 648.242 178.66C647.648 177.504 646.625 176.926 645.172 176.926C643.883 176.926 642.945 177.418 642.359 178.402C641.773 179.387 641.48 180.574 641.48 181.965C641.48 183.301 641.773 184.414 642.359 185.305C642.945 186.195 643.875 186.641 645.148 186.641ZM645.23 175.086C646.848 175.086 648.215 175.625 649.332 176.703C650.449 177.781 651.008 179.367 651.008 181.461C651.008 183.484 650.516 185.156 649.531 186.477C648.547 187.797 647.02 188.457 644.949 188.457C643.223 188.457 641.852 187.875 640.836 186.711C639.82 185.539 639.312 183.969 639.312 182C639.312 179.891 639.848 178.211 640.918 176.961C641.988 175.711 643.426 175.086 645.23 175.086ZM655.637 175.449V183.781C655.637 184.422 655.738 184.945 655.941 185.352C656.316 186.102 657.016 186.477 658.039 186.477C659.508 186.477 660.508 185.82 661.039 184.508C661.328 183.805 661.473 182.84 661.473 181.613V175.449H663.582V188H661.59L661.613 186.148C661.34 186.625 661 187.027 660.594 187.355C659.789 188.012 658.812 188.34 657.664 188.34C655.875 188.34 654.656 187.742 654.008 186.547C653.656 185.906 653.48 185.051 653.48 183.98V175.449H655.637ZM666.887 175.449H668.891V177.23C669.484 176.496 670.113 175.969 670.777 175.648C671.441 175.328 672.18 175.168 672.992 175.168C674.773 175.168 675.977 175.789 676.602 177.031C676.945 177.711 677.117 178.684 677.117 179.949V188H674.973V180.09C674.973 179.324 674.859 178.707 674.633 178.238C674.258 177.457 673.578 177.066 672.594 177.066C672.094 177.066 671.684 177.117 671.363 177.219C670.785 177.391 670.277 177.734 669.84 178.25C669.488 178.664 669.258 179.094 669.148 179.539C669.047 179.977 668.996 180.605 668.996 181.426V188H666.887V175.449ZM680.668 171.945H682.801V175.449H684.805V177.172H682.801V185.363C682.801 185.801 682.949 186.094 683.246 186.242C683.41 186.328 683.684 186.371 684.066 186.371C684.168 186.371 684.277 186.371 684.395 186.371C684.512 186.363 684.648 186.352 684.805 186.336V188C684.562 188.07 684.309 188.121 684.043 188.152C683.785 188.184 683.504 188.199 683.199 188.199C682.215 188.199 681.547 187.949 681.195 187.449C680.844 186.941 680.668 186.285 680.668 185.48V177.172H678.969V175.449H680.668V171.945Z" fill="black"/>
<path d="M326.148 59.418L322.229 48.0098L318.062 59.418H326.148ZM320.4 44.1777H324.355L333.725 70H329.893L327.273 62.2656H317.061L314.266 70H310.68L320.4 44.1777ZM338.488 60.8066C338.488 62.8223 338.916 64.5098 339.771 65.8691C340.627 67.2285 341.998 67.9082 343.885 67.9082C345.35 67.9082 346.551 67.2812 347.488 66.0273C348.438 64.7617 348.912 62.9512 348.912 60.5957C348.912 58.2168 348.426 56.459 347.453 55.3223C346.48 54.1738 345.279 53.5996 343.85 53.5996C342.256 53.5996 340.961 54.209 339.965 55.4277C338.98 56.6465 338.488 58.4395 338.488 60.8066ZM343.252 50.8398C344.693 50.8398 345.9 51.1445 346.873 51.7539C347.436 52.1055 348.074 52.7207 348.789 53.5996V44.0898H351.83V70H348.982V67.3809C348.244 68.541 347.371 69.3789 346.363 69.8945C345.355 70.4102 344.201 70.668 342.9 70.668C340.803 70.668 338.986 69.7891 337.451 68.0312C335.916 66.2617 335.148 63.9121 335.148 60.9824C335.148 58.2402 335.846 55.8672 337.24 53.8633C338.646 51.8477 340.65 50.8398 343.252 50.8398ZM358.527 60.8066C358.527 62.8223 358.955 64.5098 359.811 65.8691C360.666 67.2285 362.037 67.9082 363.924 67.9082C365.389 67.9082 366.59 67.2812 367.527 66.0273C368.477 64.7617 368.951 62.9512 368.951 60.5957C368.951 58.2168 368.465 56.459 367.492 55.3223C366.52 54.1738 365.318 53.5996 363.889 53.5996C362.295 53.5996 361 54.209 360.004 55.4277C359.02 56.6465 358.527 58.4395 358.527 60.8066ZM363.291 50.8398C364.732 50.8398 365.939 51.1445 366.912 51.7539C367.475 52.1055 368.113 52.7207 368.828 53.5996V44.0898H371.869V70H369.021V67.3809C368.283 68.541 367.41 69.3789 366.402 69.8945C365.395 70.4102 364.24 70.668 362.939 70.668C360.842 70.668 359.025 69.7891 357.49 68.0312C355.955 66.2617 355.188 63.9121 355.188 60.9824C355.188 58.2402 355.885 55.8672 357.279 53.8633C358.686 51.8477 360.689 50.8398 363.291 50.8398ZM376.65 51.1738H379.656V54.4258C379.902 53.793 380.506 53.0254 381.467 52.123C382.428 51.209 383.535 50.752 384.789 50.752C384.848 50.752 384.947 50.7578 385.088 50.7695C385.229 50.7812 385.469 50.8047 385.809 50.8398V54.1797C385.621 54.1445 385.445 54.1211 385.281 54.1094C385.129 54.0977 384.959 54.0918 384.771 54.0918C383.178 54.0918 381.953 54.6074 381.098 55.6387C380.242 56.6582 379.814 57.8359 379.814 59.1719V70H376.65V51.1738ZM396.391 50.752C397.727 50.752 399.021 51.0684 400.275 51.7012C401.529 52.3223 402.484 53.1309 403.141 54.127C403.773 55.0762 404.195 56.1836 404.406 57.4492C404.594 58.3164 404.688 59.6992 404.688 61.5977H390.889C390.947 63.5078 391.398 65.043 392.242 66.2031C393.086 67.3516 394.393 67.9258 396.162 67.9258C397.814 67.9258 399.133 67.3809 400.117 66.291C400.68 65.6582 401.078 64.9258 401.312 64.0938H404.424C404.342 64.7852 404.066 65.5586 403.598 66.4141C403.141 67.2578 402.625 67.9492 402.051 68.4883C401.09 69.4258 399.9 70.0586 398.482 70.3867C397.721 70.5742 396.859 70.668 395.898 70.668C393.555 70.668 391.568 69.8184 389.939 68.1191C388.311 66.4082 387.496 64.0176 387.496 60.9473C387.496 57.9238 388.316 55.4688 389.957 53.582C391.598 51.6953 393.742 50.752 396.391 50.752ZM401.436 59.084C401.307 57.7129 401.008 56.6172 400.539 55.7969C399.672 54.2734 398.225 53.5117 396.197 53.5117C394.744 53.5117 393.525 54.0391 392.541 55.0938C391.557 56.1367 391.035 57.4668 390.977 59.084H401.436ZM410.471 64.0938C410.564 65.1484 410.828 65.957 411.262 66.5195C412.059 67.5391 413.441 68.0488 415.41 68.0488C416.582 68.0488 417.613 67.7969 418.504 67.293C419.395 66.7773 419.84 65.9863 419.84 64.9199C419.84 64.1113 419.482 63.4961 418.768 63.0742C418.311 62.8164 417.408 62.5176 416.061 62.1777L413.547 61.5449C411.941 61.1465 410.758 60.7012 409.996 60.209C408.637 59.3535 407.957 58.1699 407.957 56.6582C407.957 54.877 408.596 53.4355 409.873 52.334C411.162 51.2324 412.891 50.6816 415.059 50.6816C417.895 50.6816 419.939 51.5137 421.193 53.1777C421.979 54.2324 422.359 55.3691 422.336 56.5879H419.348C419.289 55.873 419.037 55.2227 418.592 54.6367C417.865 53.8047 416.605 53.3887 414.812 53.3887C413.617 53.3887 412.709 53.6172 412.088 54.0742C411.479 54.5312 411.174 55.1348 411.174 55.8848C411.174 56.7051 411.578 57.3613 412.387 57.8535C412.855 58.1465 413.547 58.4043 414.461 58.627L416.553 59.1367C418.826 59.6875 420.35 60.2207 421.123 60.7363C422.354 61.5449 422.969 62.8164 422.969 64.5508C422.969 66.2266 422.33 67.6738 421.053 68.8926C419.787 70.1113 417.854 70.7207 415.252 70.7207C412.451 70.7207 410.465 70.0879 409.293 68.8223C408.133 67.5449 407.512 65.9688 407.43 64.0938H410.471ZM428.471 64.0938C428.564 65.1484 428.828 65.957 429.262 66.5195C430.059 67.5391 431.441 68.0488 433.41 68.0488C434.582 68.0488 435.613 67.7969 436.504 67.293C437.395 66.7773 437.84 65.9863 437.84 64.9199C437.84 64.1113 437.482 63.4961 436.768 63.0742C436.311 62.8164 435.408 62.5176 434.061 62.1777L431.547 61.5449C429.941 61.1465 428.758 60.7012 427.996 60.209C426.637 59.3535 425.957 58.1699 425.957 56.6582C425.957 54.877 426.596 53.4355 427.873 52.334C429.162 51.2324 430.891 50.6816 433.059 50.6816C435.895 50.6816 437.939 51.5137 439.193 53.1777C439.979 54.2324 440.359 55.3691 440.336 56.5879H437.348C437.289 55.873 437.037 55.2227 436.592 54.6367C435.865 53.8047 434.605 53.3887 432.812 53.3887C431.617 53.3887 430.709 53.6172 430.088 54.0742C429.479 54.5312 429.174 55.1348 429.174 55.8848C429.174 56.7051 429.578 57.3613 430.387 57.8535C430.855 58.1465 431.547 58.4043 432.461 58.627L434.553 59.1367C436.826 59.6875 438.35 60.2207 439.123 60.7363C440.354 61.5449 440.969 62.8164 440.969 64.5508C440.969 66.2266 440.33 67.6738 439.053 68.8926C437.787 70.1113 435.854 70.7207 433.252 70.7207C430.451 70.7207 428.465 70.0879 427.293 68.8223C426.133 67.5449 425.512 65.9688 425.43 64.0938H428.471ZM454.697 44.1777H457.861V70H454.697V44.1777ZM470.096 67.9609C472.193 67.9609 473.629 67.1699 474.402 65.5879C475.188 63.9941 475.58 62.2246 475.58 60.2793C475.58 58.5215 475.299 57.0918 474.736 55.9902C473.846 54.2559 472.311 53.3887 470.131 53.3887C468.197 53.3887 466.791 54.127 465.912 55.6035C465.033 57.0801 464.594 58.8613 464.594 60.9473C464.594 62.9512 465.033 64.6211 465.912 65.957C466.791 67.293 468.186 67.9609 470.096 67.9609ZM470.219 50.6289C472.645 50.6289 474.695 51.4375 476.371 53.0547C478.047 54.6719 478.885 57.0508 478.885 60.1914C478.885 63.2266 478.146 65.7344 476.67 67.7148C475.193 69.6953 472.902 70.6855 469.797 70.6855C467.207 70.6855 465.15 69.8125 463.627 68.0664C462.104 66.3086 461.342 63.9531 461.342 61C461.342 57.8359 462.145 55.3164 463.75 53.4414C465.355 51.5664 467.512 50.6289 470.219 50.6289ZM490.135 67.9609C492.232 67.9609 493.668 67.1699 494.441 65.5879C495.227 63.9941 495.619 62.2246 495.619 60.2793C495.619 58.5215 495.338 57.0918 494.775 55.9902C493.885 54.2559 492.35 53.3887 490.17 53.3887C488.236 53.3887 486.83 54.127 485.951 55.6035C485.072 57.0801 484.633 58.8613 484.633 60.9473C484.633 62.9512 485.072 64.6211 485.951 65.957C486.83 67.293 488.225 67.9609 490.135 67.9609ZM490.258 50.6289C492.684 50.6289 494.734 51.4375 496.41 53.0547C498.086 54.6719 498.924 57.0508 498.924 60.1914C498.924 63.2266 498.186 65.7344 496.709 67.7148C495.232 69.6953 492.941 70.6855 489.836 70.6855C487.246 70.6855 485.189 69.8125 483.666 68.0664C482.143 66.3086 481.381 63.9531 481.381 61C481.381 57.8359 482.184 55.3164 483.789 53.4414C485.395 51.5664 487.551 50.6289 490.258 50.6289ZM502.633 44.1777H505.674V59.1719L513.795 51.1738H517.838L510.631 58.2227L518.242 70H514.199L508.328 60.5078L505.674 62.9336V70H502.633V44.1777ZM519.877 58.3457H528.701V61.5977H519.877V58.3457ZM535.855 51.1738V63.6719C535.855 64.6328 536.008 65.418 536.312 66.0273C536.875 67.1523 537.924 67.7148 539.459 67.7148C541.662 67.7148 543.162 66.7305 543.959 64.7617C544.393 63.707 544.609 62.2598 544.609 60.4199V51.1738H547.773V70H544.785L544.82 67.2227C544.41 67.9375 543.9 68.541 543.291 69.0332C542.084 70.0176 540.619 70.5098 538.896 70.5098C536.213 70.5098 534.385 69.6133 533.412 67.8203C532.885 66.8594 532.621 65.5762 532.621 63.9707V51.1738H535.855ZM560.676 67.873C562.152 67.873 563.377 67.2578 564.35 66.0273C565.334 64.7852 565.826 62.9336 565.826 60.4727C565.826 58.9727 565.609 57.6836 565.176 56.6055C564.355 54.5312 562.855 53.4941 560.676 53.4941C558.484 53.4941 556.984 54.5898 556.176 56.7812C555.742 57.9531 555.525 59.4414 555.525 61.2461C555.525 62.6992 555.742 63.9355 556.176 64.9551C556.996 66.9004 558.496 67.873 560.676 67.873ZM552.484 51.2617H555.561V53.7578C556.193 52.9023 556.885 52.2402 557.635 51.7715C558.701 51.0684 559.955 50.7168 561.396 50.7168C563.529 50.7168 565.34 51.5371 566.828 53.1777C568.316 54.8066 569.061 57.1387 569.061 60.1738C569.061 64.2754 567.988 67.2051 565.844 68.9629C564.484 70.0762 562.902 70.6328 561.098 70.6328C559.68 70.6328 558.49 70.3223 557.529 69.7012C556.967 69.3496 556.34 68.7461 555.648 67.8906V77.5059H552.484V51.2617ZM583.422 45.918H586.621V51.1738H589.627V53.7578H586.621V66.0449C586.621 66.7012 586.844 67.1406 587.289 67.3633C587.535 67.4922 587.945 67.5566 588.52 67.5566C588.672 67.5566 588.836 67.5566 589.012 67.5566C589.188 67.5449 589.393 67.5273 589.627 67.5039V70C589.264 70.1055 588.883 70.1816 588.484 70.2285C588.098 70.2754 587.676 70.2988 587.219 70.2988C585.742 70.2988 584.74 69.9238 584.213 69.1738C583.686 68.4121 583.422 67.4277 583.422 66.2207V53.7578H580.873V51.1738H583.422V45.918ZM595.234 64.9902C595.234 65.9043 595.568 66.625 596.236 67.1523C596.904 67.6797 597.695 67.9434 598.609 67.9434C599.723 67.9434 600.801 67.6855 601.844 67.1699C603.602 66.3145 604.48 64.9141 604.48 62.9688V60.4199C604.094 60.666 603.596 60.8711 602.986 61.0352C602.377 61.1992 601.779 61.3164 601.193 61.3867L599.277 61.6328C598.129 61.7852 597.268 62.0254 596.693 62.3535C595.721 62.9043 595.234 63.7832 595.234 64.9902ZM602.898 58.5918C603.625 58.498 604.111 58.1934 604.357 57.6777C604.498 57.3965 604.568 56.9922 604.568 56.4648C604.568 55.3867 604.182 54.6074 603.408 54.127C602.646 53.6348 601.551 53.3887 600.121 53.3887C598.469 53.3887 597.297 53.834 596.605 54.7246C596.219 55.2168 595.967 55.9492 595.85 56.9219H592.896C592.955 54.6016 593.705 52.9902 595.146 52.0879C596.6 51.1738 598.281 50.7168 600.191 50.7168C602.406 50.7168 604.205 51.1387 605.588 51.9824C606.959 52.8262 607.645 54.1387 607.645 55.9199V66.7656C607.645 67.0938 607.709 67.3574 607.838 67.5566C607.979 67.7559 608.266 67.8555 608.699 67.8555C608.84 67.8555 608.998 67.8496 609.174 67.8379C609.35 67.8145 609.537 67.7852 609.736 67.75V70.0879C609.244 70.2285 608.869 70.3164 608.611 70.3516C608.354 70.3867 608.002 70.4043 607.557 70.4043C606.467 70.4043 605.676 70.0176 605.184 69.2441C604.926 68.834 604.744 68.2539 604.639 67.5039C603.994 68.3477 603.068 69.0801 601.861 69.7012C600.654 70.3223 599.324 70.6328 597.871 70.6328C596.125 70.6328 594.695 70.1055 593.582 69.0508C592.48 67.9844 591.93 66.6543 591.93 65.0605C591.93 63.3145 592.475 61.9609 593.564 61C594.654 60.0391 596.084 59.4473 597.854 59.2246L602.898 58.5918ZM612.602 44.0898H615.678V53.459C616.369 52.5566 617.195 51.8711 618.156 51.4023C619.117 50.9219 620.16 50.6816 621.285 50.6816C623.629 50.6816 625.527 51.4902 626.98 53.1074C628.445 54.7129 629.178 57.0859 629.178 60.2266C629.178 63.2031 628.457 65.6758 627.016 67.6445C625.574 69.6133 623.576 70.5977 621.021 70.5977C619.592 70.5977 618.385 70.252 617.4 69.5605C616.814 69.1504 616.188 68.4941 615.52 67.5918V70H612.602V44.0898ZM620.828 67.8027C622.539 67.8027 623.816 67.123 624.66 65.7637C625.516 64.4043 625.943 62.6113 625.943 60.3848C625.943 58.4043 625.516 56.7637 624.66 55.4629C623.816 54.1621 622.568 53.5117 620.916 53.5117C619.475 53.5117 618.209 54.0449 617.119 55.1113C616.041 56.1777 615.502 57.9355 615.502 60.3848C615.502 62.1543 615.725 63.5898 616.17 64.6914C617.002 66.7656 618.555 67.8027 620.828 67.8027ZM632.975 44.1777H636.139V70H632.975V44.1777ZM648.742 50.752C650.078 50.752 651.373 51.0684 652.627 51.7012C653.881 52.3223 654.836 53.1309 655.492 54.127C656.125 55.0762 656.547 56.1836 656.758 57.4492C656.945 58.3164 657.039 59.6992 657.039 61.5977H643.24C643.299 63.5078 643.75 65.043 644.594 66.2031C645.438 67.3516 646.744 67.9258 648.514 67.9258C650.166 67.9258 651.484 67.3809 652.469 66.291C653.031 65.6582 653.43 64.9258 653.664 64.0938H656.775C656.693 64.7852 656.418 65.5586 655.949 66.4141C655.492 67.2578 654.977 67.9492 654.402 68.4883C653.441 69.4258 652.252 70.0586 650.834 70.3867C650.072 70.5742 649.211 70.668 648.25 70.668C645.906 70.668 643.92 69.8184 642.291 68.1191C640.662 66.4082 639.848 64.0176 639.848 60.9473C639.848 57.9238 640.668 55.4688 642.309 53.582C643.949 51.6953 646.094 50.752 648.742 50.752ZM653.787 59.084C653.658 57.7129 653.359 56.6172 652.891 55.7969C652.023 54.2734 650.576 53.5117 648.549 53.5117C647.096 53.5117 645.877 54.0391 644.893 55.0938C643.908 56.1367 643.387 57.4668 643.328 59.084H653.787ZM678.221 50.6289C680.342 50.6289 682.064 51.1445 683.389 52.1758C684.725 53.207 685.527 54.9824 685.797 57.502H682.721C682.533 56.3418 682.105 55.3809 681.438 54.6191C680.77 53.8457 679.697 53.459 678.221 53.459C676.205 53.459 674.764 54.4434 673.896 56.4121C673.334 57.6895 673.053 59.2656 673.053 61.1406C673.053 63.0273 673.451 64.6152 674.248 65.9043C675.045 67.1934 676.299 67.8379 678.01 67.8379C679.322 67.8379 680.359 67.4395 681.121 66.6426C681.895 65.834 682.428 64.7324 682.721 63.3379H685.797C685.445 65.834 684.566 67.6621 683.16 68.8223C681.754 69.9707 679.955 70.5449 677.764 70.5449C675.303 70.5449 673.34 69.6484 671.875 67.8555C670.41 66.0508 669.678 63.8008 669.678 61.1055C669.678 57.8008 670.48 55.2285 672.086 53.3887C673.691 51.5488 675.736 50.6289 678.221 50.6289ZM691.387 64.9902C691.387 65.9043 691.721 66.625 692.389 67.1523C693.057 67.6797 693.848 67.9434 694.762 67.9434C695.875 67.9434 696.953 67.6855 697.996 67.1699C699.754 66.3145 700.633 64.9141 700.633 62.9688V60.4199C700.246 60.666 699.748 60.8711 699.139 61.0352C698.529 61.1992 697.932 61.3164 697.346 61.3867L695.43 61.6328C694.281 61.7852 693.42 62.0254 692.846 62.3535C691.873 62.9043 691.387 63.7832 691.387 64.9902ZM699.051 58.5918C699.777 58.498 700.264 58.1934 700.51 57.6777C700.65 57.3965 700.721 56.9922 700.721 56.4648C700.721 55.3867 700.334 54.6074 699.561 54.127C698.799 53.6348 697.703 53.3887 696.273 53.3887C694.621 53.3887 693.449 53.834 692.758 54.7246C692.371 55.2168 692.119 55.9492 692.002 56.9219H689.049C689.107 54.6016 689.857 52.9902 691.299 52.0879C692.752 51.1738 694.434 50.7168 696.344 50.7168C698.559 50.7168 700.357 51.1387 701.74 51.9824C703.111 52.8262 703.797 54.1387 703.797 55.9199V66.7656C703.797 67.0938 703.861 67.3574 703.99 67.5566C704.131 67.7559 704.418 67.8555 704.852 67.8555C704.992 67.8555 705.15 67.8496 705.326 67.8379C705.502 67.8145 705.689 67.7852 705.889 67.75V70.0879C705.396 70.2285 705.021 70.3164 704.764 70.3516C704.506 70.3867 704.154 70.4043 703.709 70.4043C702.619 70.4043 701.828 70.0176 701.336 69.2441C701.078 68.834 700.896 68.2539 700.791 67.5039C700.146 68.3477 699.221 69.0801 698.014 69.7012C696.807 70.3223 695.477 70.6328 694.023 70.6328C692.277 70.6328 690.848 70.1055 689.734 69.0508C688.633 67.9844 688.082 66.6543 688.082 65.0605C688.082 63.3145 688.627 61.9609 689.717 61C690.807 60.0391 692.236 59.4473 694.006 59.2246L699.051 58.5918ZM709.088 44.1777H712.252V70H709.088V44.1777ZM717.104 44.1777H720.268V70H717.104V44.1777ZM727.035 60.8066C727.035 62.8223 727.463 64.5098 728.318 65.8691C729.174 67.2285 730.545 67.9082 732.432 67.9082C733.896 67.9082 735.098 67.2812 736.035 66.0273C736.984 64.7617 737.459 62.9512 737.459 60.5957C737.459 58.2168 736.973 56.459 736 55.3223C735.027 54.1738 733.826 53.5996 732.396 53.5996C730.803 53.5996 729.508 54.209 728.512 55.4277C727.527 56.6465 727.035 58.4395 727.035 60.8066ZM731.799 50.8398C733.24 50.8398 734.447 51.1445 735.42 51.7539C735.982 52.1055 736.621 52.7207 737.336 53.5996V44.0898H740.377V70H737.529V67.3809C736.791 68.541 735.918 69.3789 734.91 69.8945C733.902 70.4102 732.748 70.668 731.447 70.668C729.35 70.668 727.533 69.7891 725.998 68.0312C724.463 66.2617 723.695 63.9121 723.695 60.9824C723.695 58.2402 724.393 55.8672 725.787 53.8633C727.193 51.8477 729.197 50.8398 731.799 50.8398ZM747.496 64.9902C747.496 65.9043 747.83 66.625 748.498 67.1523C749.166 67.6797 749.957 67.9434 750.871 67.9434C751.984 67.9434 753.062 67.6855 754.105 67.1699C755.863 66.3145 756.742 64.9141 756.742 62.9688V60.4199C756.355 60.666 755.857 60.8711 755.248 61.0352C754.639 61.1992 754.041 61.3164 753.455 61.3867L751.539 61.6328C750.391 61.7852 749.529 62.0254 748.955 62.3535C747.982 62.9043 747.496 63.7832 747.496 64.9902ZM755.16 58.5918C755.887 58.498 756.373 58.1934 756.619 57.6777C756.76 57.3965 756.83 56.9922 756.83 56.4648C756.83 55.3867 756.443 54.6074 755.67 54.127C754.908 53.6348 753.812 53.3887 752.383 53.3887C750.73 53.3887 749.559 53.834 748.867 54.7246C748.48 55.2168 748.229 55.9492 748.111 56.9219H745.158C745.217 54.6016 745.967 52.9902 747.408 52.0879C748.861 51.1738 750.543 50.7168 752.453 50.7168C754.668 50.7168 756.467 51.1387 757.85 51.9824C759.221 52.8262 759.906 54.1387 759.906 55.9199V66.7656C759.906 67.0938 759.971 67.3574 760.1 67.5566C760.24 67.7559 760.527 67.8555 760.961 67.8555C761.102 67.8555 761.26 67.8496 761.436 67.8379C761.611 67.8145 761.799 67.7852 761.998 67.75V70.0879C761.506 70.2285 761.131 70.3164 760.873 70.3516C760.615 70.3867 760.264 70.4043 759.818 70.4043C758.729 70.4043 757.938 70.0176 757.445 69.2441C757.188 68.834 757.006 68.2539 756.9 67.5039C756.256 68.3477 755.33 69.0801 754.123 69.7012C752.916 70.3223 751.586 70.6328 750.133 70.6328C748.387 70.6328 746.957 70.1055 745.844 69.0508C744.742 67.9844 744.191 66.6543 744.191 65.0605C744.191 63.3145 744.736 61.9609 745.826 61C746.916 60.0391 748.346 59.4473 750.115 59.2246L755.16 58.5918ZM765.742 45.918H768.941V51.1738H771.947V53.7578H768.941V66.0449C768.941 66.7012 769.164 67.1406 769.609 67.3633C769.855 67.4922 770.266 67.5566 770.84 67.5566C770.992 67.5566 771.156 67.5566 771.332 67.5566C771.508 67.5449 771.713 67.5273 771.947 67.5039V70C771.584 70.1055 771.203 70.1816 770.805 70.2285C770.418 70.2754 769.996 70.2988 769.539 70.2988C768.062 70.2988 767.061 69.9238 766.533 69.1738C766.006 68.4121 765.742 67.4277 765.742 66.2207V53.7578H763.193V51.1738H765.742V45.918ZM777.555 64.9902C777.555 65.9043 777.889 66.625 778.557 67.1523C779.225 67.6797 780.016 67.9434 780.93 67.9434C782.043 67.9434 783.121 67.6855 784.164 67.1699C785.922 66.3145 786.801 64.9141 786.801 62.9688V60.4199C786.414 60.666 785.916 60.8711 785.307 61.0352C784.697 61.1992 784.1 61.3164 783.514 61.3867L781.598 61.6328C780.449 61.7852 779.588 62.0254 779.014 62.3535C778.041 62.9043 777.555 63.7832 777.555 64.9902ZM785.219 58.5918C785.945 58.498 786.432 58.1934 786.678 57.6777C786.818 57.3965 786.889 56.9922 786.889 56.4648C786.889 55.3867 786.502 54.6074 785.729 54.127C784.967 53.6348 783.871 53.3887 782.441 53.3887C780.789 53.3887 779.617 53.834 778.926 54.7246C778.539 55.2168 778.287 55.9492 778.17 56.9219H775.217C775.275 54.6016 776.025 52.9902 777.467 52.0879C778.92 51.1738 780.602 50.7168 782.512 50.7168C784.727 50.7168 786.525 51.1387 787.908 51.9824C789.279 52.8262 789.965 54.1387 789.965 55.9199V66.7656C789.965 67.0938 790.029 67.3574 790.158 67.5566C790.299 67.7559 790.586 67.8555 791.02 67.8555C791.16 67.8555 791.318 67.8496 791.494 67.8379C791.67 67.8145 791.857 67.7852 792.057 67.75V70.0879C791.564 70.2285 791.189 70.3164 790.932 70.3516C790.674 70.3867 790.322 70.4043 789.877 70.4043C788.787 70.4043 787.996 70.0176 787.504 69.2441C787.246 68.834 787.064 68.2539 786.959 67.5039C786.314 68.3477 785.389 69.0801 784.182 69.7012C782.975 70.3223 781.645 70.6328 780.191 70.6328C778.445 70.6328 777.016 70.1055 775.902 69.0508C774.801 67.9844 774.25 66.6543 774.25 65.0605C774.25 63.3145 774.795 61.9609 775.885 61C776.975 60.0391 778.404 59.4473 780.174 59.2246L785.219 58.5918Z" fill="black"/>
<path d="M600 145V164H687V145" stroke="black" stroke-width="5"/>
</svg>
